CommissionerLoud-ThinItalic.ufo
<glyph name="numbersign" format="2">
  <advance width="671"/>
  <unicode hex="0023"/>
  <outline>
    <contour>
      <point x="4" y="169" type="line"/>
      <point x="62" y="170"/>
      <point x="129" y="171"/>
      <point x="164" y="171" type="curve"/>
      <point x="414" y="171" type="line"/>
      <point x="449" y="171"/>
      <point x="516" y="170"/>
      <point x="574" y="169" type="curve"/>
      <point x="580" y="201" type="line"/>
      <point x="522" y="200"/>
      <point x="455" y="199"/>
      <point x="420" y="199" type="curve"/>
      <point x="170" y="199" type="line"/>
      <point x="135" y="199"/>
      <point x="68" y="200"/>
      <point x="10" y="201" type="curve"/>
    </contour>
    <contour>
      <point x="75" y="0" type="curve"/>
      <point x="112" y="0" type="line"/>
      <point x="140" y="67"/>
      <point x="164" y="125"/>
      <point x="199" y="209" type="curve"/>
      <point x="296" y="437" type="line"/>
      <point x="334" y="524"/>
      <point x="359" y="582"/>
      <point x="390" y="653" type="curve"/>
      <point x="353" y="653" type="line"/>
      <point x="325" y="585"/>
      <point x="300" y="525"/>
      <point x="263" y="437" type="curve"/>
      <point x="166" y="209" type="line"/>
      <point x="130" y="126"/>
      <point x="104" y="67"/>
    </contour>
    <contour>
      <point x="124" y="449" type="line"/>
      <point x="182" y="450"/>
      <point x="249" y="451"/>
      <point x="284" y="451" type="curve"/>
      <point x="534" y="451" type="line"/>
      <point x="569" y="451"/>
      <point x="636" y="450"/>
      <point x="694" y="449" type="curve"/>
      <point x="700" y="481" type="line"/>
      <point x="642" y="480"/>
      <point x="575" y="479"/>
      <point x="540" y="479" type="curve"/>
      <point x="290" y="479" type="line"/>
      <point x="255" y="479"/>
      <point x="188" y="480"/>
      <point x="130" y="481" type="curve"/>
    </contour>
    <contour>
      <point x="305" y="0" type="curve"/>
      <point x="342" y="0" type="line"/>
      <point x="370" y="67"/>
      <point x="394" y="125"/>
      <point x="429" y="209" type="curve"/>
      <point x="526" y="437" type="line"/>
      <point x="564" y="524"/>
      <point x="589" y="582"/>
      <point x="620" y="653" type="curve"/>
      <point x="583" y="653" type="line"/>
      <point x="555" y="585"/>
      <point x="530" y="525"/>
      <point x="493" y="437" type="curve"/>
      <point x="396" y="209" type="line"/>
      <point x="360" y="126"/>
      <point x="334" y="67"/>
    </contour>
  </outline>
</glyph>
<glyph name="quotesingle" format="2">
  <advance width="183"/>
  <unicode hex="0027"/>
  <outline>
    <contour>
      <point x="112" y="466" type="curve"/>
      <point x="139" y="467" type="line"/>
      <point x="159" y="560"/>
      <point x="184" y="653"/>
      <point x="210" y="744" type="curve"/>
      <point x="157" y="743" type="line"/>
      <point x="145" y="652"/>
      <point x="132" y="560"/>
    </contour>
  </outline>
</glyph>
<glyph name="parenleft" format="2">
  <advance width="364"/>
  <unicode hex="0028"/>
  <outline>
    <contour>
      <point x="211" y="-112" type="curve"/>
      <point x="247" y="-101" type="line"/>
      <point x="170" y="27"/>
      <point x="88" y="181"/>
      <point x="122" y="341" type="curve" smooth="yes"/>
      <point x="156" y="501"/>
      <point x="298" y="634"/>
      <point x="422" y="743" type="curve"/>
      <point x="388" y="760" type="line"/>
      <point x="267" y="647"/>
      <point x="127" y="512"/>
      <point x="91" y="344" type="curve" smooth="yes"/>
      <point x="55" y="177"/>
      <point x="139" y="19"/>
    </contour>
  </outline>
</glyph>
<glyph name="asterisk" format="2">
  <advance width="458"/>
  <unicode hex="002A"/>
  <outline>
    <contour>
      <point x="436" y="349" type="curve"/>
      <point x="461" y="375" type="line"/>
      <point x="406" y="425"/>
      <point x="350" y="476"/>
      <point x="295" y="526" type="curve"/>
      <point x="243" y="581"/>
      <point x="189" y="634"/>
      <point x="137" y="687" type="curve"/>
      <point x="113" y="661" type="line"/>
      <point x="167" y="611"/>
      <point x="223" y="560"/>
      <point x="278" y="509" type="curve"/>
      <point x="331" y="456"/>
      <point x="384" y="402"/>
    </contour>
    <contour>
      <point x="82" y="425" type="line"/>
      <point x="151" y="452"/>
      <point x="221" y="479"/>
      <point x="291" y="507" type="curve"/>
      <point x="362" y="531"/>
      <point x="433" y="554"/>
      <point x="504" y="578" type="curve"/>
      <point x="491" y="611" type="line"/>
      <point x="422" y="584"/>
      <point x="352" y="557"/>
      <point x="283" y="530" type="curve"/>
      <point x="211" y="505"/>
      <point x="140" y="482"/>
      <point x="69" y="458" type="curve"/>
    </contour>
    <contour>
      <point x="222" y="302" type="curve"/>
      <point x="257" y="294" type="line"/>
      <point x="271" y="368"/>
      <point x="285" y="442"/>
      <point x="298" y="517" type="curve"/>
      <point x="316" y="589"/>
      <point x="333" y="661"/>
      <point x="351" y="734" type="curve"/>
      <point x="316" y="742" type="line"/>
      <point x="302" y="668"/>
      <point x="288" y="594"/>
      <point x="275" y="522" type="curve"/>
      <point x="257" y="448"/>
      <point x="240" y="375"/>
    </contour>
  </outline>
</glyph>
<glyph name="plus" format="2">
  <advance width="580"/>
  <unicode hex="002B"/>
  <outline>
    <contour>
      <point x="234" y="65" type="curve"/>
      <point x="269" y="65" type="line"/>
      <point x="281" y="125"/>
      <point x="294" y="190"/>
      <point x="301" y="225" type="curve"/>
      <point x="331" y="365" type="line"/>
      <point x="339" y="400"/>
      <point x="354" y="467"/>
      <point x="367" y="525" type="curve"/>
      <point x="332" y="525" type="line"/>
      <point x="321" y="468"/>
      <point x="307" y="399"/>
      <point x="300" y="365" type="curve"/>
      <point x="270" y="225" type="line"/>
      <point x="263" y="191"/>
      <point x="248" y="124"/>
    </contour>
    <contour>
      <point x="77" y="278" type="line"/>
      <point x="135" y="279"/>
      <point x="202" y="280"/>
      <point x="237" y="280" type="curve"/>
      <point x="357" y="280" type="line"/>
      <point x="392" y="280"/>
      <point x="459" y="279"/>
      <point x="517" y="278" type="curve"/>
      <point x="524" y="312" type="line"/>
      <point x="466" y="311"/>
      <point x="398" y="310"/>
      <point x="363" y="310" type="curve"/>
      <point x="243" y="310" type="line"/>
      <point x="208" y="310"/>
      <point x="142" y="311"/>
      <point x="84" y="312" type="curve"/>
    </contour>
  </outline>
</glyph>
<glyph name="comma" format="2">
  <advance width="214"/>
  <unicode hex="002C"/>
  <outline>
    <contour>
      <point x="-27" y="-157" type="curve"/>
      <point x="-2" y="-156" type="line"/>
      <point x="40" y="-91"/>
      <point x="102" y="5"/>
      <point x="109" y="40" type="curve" smooth="yes"/>
      <point x="114" y="65"/>
      <point x="106" y="82"/>
      <point x="84" y="86" type="curve"/>
      <point x="59" y="85" type="line"/>
      <point x="55" y="61"/>
      <point x="52" y="37"/>
      <point x="48" y="13" type="curve"/>
      <point x="24" y="-44"/>
      <point x="0" y="-98"/>
    </contour>
  </outline>
</glyph>
<glyph name="one" format="2">
  <advance width="408"/>
  <unicode hex="0031"/>
  <outline>
    <contour>
      <point x="109" y="522" type="line"/>
      <point x="191" y="565"/>
      <point x="271" y="607"/>
      <point x="353" y="650" type="curve"/>
      <point x="360" y="686" type="line"/>
      <point x="275" y="643"/>
      <point x="190" y="601"/>
      <point x="105" y="558" type="curve"/>
    </contour>
    <contour>
      <point x="198" y="0" type="curve"/>
      <point x="233" y="0" type="line"/>
      <point x="248" y="75"/>
      <point x="262" y="140"/>
      <point x="278" y="221" type="curve"/>
      <point x="326" y="447" type="line"/>
      <point x="345" y="532"/>
      <point x="363" y="612"/>
      <point x="379" y="684" type="curve"/>
      <point x="360" y="686" type="line"/>
      <point x="341" y="668" type="line"/>
      <point x="326" y="594"/>
      <point x="309" y="510"/>
      <point x="296" y="447" type="curve"/>
      <point x="248" y="221" type="line"/>
      <point x="229" y="140"/>
      <point x="215" y="75"/>
    </contour>
  </outline>
</glyph>
<glyph name="two" format="2">
  <advance width="543"/>
  <unicode hex="0032"/>
  <outline>
    <contour>
      <point x="1" y="0" type="line"/>
      <point x="431" y="0" type="line"/>
      <point x="438" y="33" type="line"/>
      <point x="356" y="32"/>
      <point x="273" y="31"/>
      <point x="190" y="30" type="curve"/>
      <point x="39" y="30" type="line"/>
      <point x="46" y="19" type="line"/>
      <point x="189" y="126" type="line"/>
      <point x="382" y="271"/>
      <point x="491" y="363"/>
      <point x="516" y="484" type="curve" smooth="yes"/>
      <point x="539" y="597"/>
      <point x="487" y="696"/>
      <point x="349" y="696" type="curve" smooth="yes"/>
      <point x="304" y="696"/>
      <point x="184" y="654"/>
      <point x="131" y="635" type="curve"/>
      <point x="130" y="595" type="line"/>
      <point x="224" y="632"/>
      <point x="322" y="664"/>
      <point x="349" y="664" type="curve"/>
      <point x="465" y="663"/>
      <point x="507" y="590"/>
      <point x="486" y="491" type="curve" smooth="yes"/>
      <point x="462" y="375"/>
      <point x="350" y="284"/>
      <point x="165" y="145" type="curve"/>
      <point x="113" y="107"/>
      <point x="59" y="68"/>
      <point x="7" y="30" type="curve"/>
    </contour>
  </outline>
</glyph>
<glyph name="five" format="2">
  <advance width="568"/>
  <unicode hex="0035"/>
  <outline>
    <contour>
      <point x="234" y="-9" type="curve" smooth="yes"/>
      <point x="377" y="-9"/>
      <point x="468" y="57"/>
      <point x="497" y="193" type="curve" smooth="yes"/>
      <point x="529" y="341"/>
      <point x="432" y="433"/>
      <point x="311" y="433" type="curve" smooth="yes"/>
      <point x="260" y="433"/>
      <point x="207" y="412"/>
      <point x="163" y="394" type="curve"/>
      <point x="157" y="394" type="line"/>
      <point x="168" y="447" type="line"/>
      <point x="181" y="510"/>
      <point x="200" y="594"/>
      <point x="215" y="668" type="curve"/>
      <point x="199" y="654" type="line"/>
      <point x="303" y="654" type="line"/>
      <point x="383" y="653"/>
      <point x="466" y="652"/>
      <point x="548" y="651" type="curve"/>
      <point x="555" y="684" type="line"/>
      <point x="185" y="684" type="line"/>
      <point x="171" y="612"/>
      <point x="155" y="532"/>
      <point x="138" y="447" type="curve"/>
      <point x="117" y="346" type="line"/>
      <point x="132" y="344" type="line"/>
      <point x="198" y="381"/>
      <point x="268" y="401"/>
      <point x="310" y="401" type="curve" smooth="yes"/>
      <point x="413" y="400"/>
      <point x="495" y="334"/>
      <point x="467" y="198" type="curve" smooth="yes"/>
      <point x="442" y="75"/>
      <point x="363" y="24"/>
      <point x="233" y="23" type="curve"/>
      <point x="184" y="23"/>
      <point x="109" y="54"/>
      <point x="23" y="94" type="curve"/>
      <point x="10" y="60" type="line"/>
      <point x="91" y="26"/>
      <point x="183" y="-9"/>
    </contour>
  </outline>
</glyph>
<glyph name="greater" format="2">
  <advance width="560"/>
  <unicode hex="003E"/>
  <outline>
    <contour>
      <point x="36" y="86" type="line"/>
      <point x="99" y="113"/>
      <point x="160" y="139"/>
      <point x="213" y="161" type="curve"/>
      <point x="322" y="206" type="line"/>
      <point x="373" y="227"/>
      <point x="434" y="252"/>
      <point x="496" y="276" type="curve"/>
      <point x="504" y="312" type="line"/>
      <point x="452" y="336"/>
      <point x="401" y="361"/>
      <point x="360" y="382" type="curve"/>
      <point x="269" y="427" type="line"/>
      <point x="226" y="449"/>
      <point x="175" y="476"/>
      <point x="124" y="502" type="curve"/>
      <point x="116" y="466" type="line"/>
      <point x="187" y="432"/>
      <point x="267" y="394"/>
      <point x="340" y="359" type="curve"/>
      <point x="459" y="300" type="line"/>
      <point x="457" y="294" type="line"/>
      <point x="314" y="235" type="line"/>
      <point x="226" y="200"/>
      <point x="130" y="162"/>
      <point x="44" y="128" type="curve"/>
    </contour>
  </outline>
</glyph>
<glyph name="F" format="2">
  <advance width="571"/>
  <unicode hex="0046"/>
  <outline>
    <contour>
      <point x="56" y="0" type="curve"/>
      <point x="93" y="0" type="line"/>
      <point x="109" y="81"/>
      <point x="122" y="148"/>
      <point x="140" y="238" type="curve"/>
      <point x="190" y="472" type="line"/>
      <point x="209" y="560"/>
      <point x="225" y="629"/>
      <point x="243" y="710" type="curve"/>
      <point x="243" y="713" type="line"/>
      <point x="206" y="713" type="line"/>
      <point x="190" y="634"/>
      <point x="176" y="562"/>
      <point x="158" y="473" type="curve"/>
      <point x="108" y="238" type="line"/>
      <point x="89" y="151"/>
      <point x="74" y="83"/>
    </contour>
    <contour>
      <point x="157" y="347" type="line"/>
      <point x="291" y="347" type="line"/>
      <point x="385" y="347"/>
      <point x="448" y="346"/>
      <point x="517" y="346" type="curve"/>
      <point x="524" y="381" type="line"/>
      <point x="459" y="380"/>
      <point x="394" y="379"/>
      <point x="299" y="378" type="curve"/>
      <point x="164" y="378" type="line"/>
    </contour>
    <contour>
      <point x="227" y="682" type="line"/>
      <point x="353" y="682" type="line"/>
      <point x="463" y="681"/>
      <point x="539" y="679"/>
      <point x="610" y="678" type="curve"/>
      <point x="617" y="713" type="line"/>
      <point x="234" y="713" type="line"/>
    </contour>
  </outline>
</glyph>
<glyph name="J" format="2">
  <advance width="271"/>
  <unicode hex="004A"/>
  <anchor x="91" y="0" name="bottom"/>
  <anchor x="241" y="713" name="top"/>
  <outline>
    <contour>
      <point x="-58" y="-160" type="curve"/>
      <point x="-14" y="-160" type="line"/>
      <point x="23" y="-108"/>
      <point x="113" y="19"/>
      <point x="116" y="35" type="curve" smooth="yes"/>
      <point x="133" y="112"/>
      <point x="148" y="191"/>
      <point x="165" y="271" type="curve"/>
      <point x="208" y="473" type="line"/>
      <point x="228" y="563"/>
      <point x="243" y="632"/>
      <point x="261" y="713" type="curve"/>
      <point x="224" y="713" type="line"/>
      <point x="208" y="634"/>
      <point x="194" y="562"/>
      <point x="176" y="473" type="curve"/>
      <point x="126" y="238" type="line"/>
      <point x="79" y="32" type="line"/>
      <point x="24" y="-45"/>
      <point x="-15" y="-100"/>
    </contour>
  </outline>
</glyph>
<glyph name="M" format="2">
  <advance width="951"/>
  <unicode hex="004D"/>
  <anchor x="423" y="0" name="bottom"/>
  <anchor x="573" y="713" name="top"/>
  <outline>
    <contour>
      <point x="24" y="0" type="curve"/>
      <point x="63" y="0" type="line"/>
      <point x="110" y="143"/>
      <point x="155" y="281"/>
      <point x="193" y="396" type="curve"/>
      <point x="274" y="644" type="line"/>
      <point x="277" y="644" type="line"/>
      <point x="334" y="374" type="line"/>
      <point x="359" y="248"/>
      <point x="387" y="105"/>
      <point x="408" y="0" type="curve"/>
      <point x="439" y="0" type="line"/>
      <point x="508" y="110"/>
      <point x="593" y="246"/>
      <point x="674" y="376" type="curve"/>
      <point x="843" y="644" type="line"/>
      <point x="846" y="644" type="line"/>
      <point x="824" y="396" type="line"/>
      <point x="812" y="279"/>
      <point x="799" y="147"/>
      <point x="784" y="0" type="curve"/>
      <point x="822" y="0" type="line"/>
      <point x="829" y="81"/>
      <point x="835" y="152"/>
      <point x="842" y="238" type="curve"/>
      <point x="864" y="473" type="line"/>
      <point x="873" y="561"/>
      <point x="880" y="631"/>
      <point x="888" y="713" type="curve"/>
      <point x="847" y="713" type="line"/>
      <point x="774" y="596"/>
      <point x="708" y="489"/>
      <point x="639" y="378" type="curve"/>
      <point x="435" y="55" type="line"/>
      <point x="431" y="55" type="line"/>
      <point x="365" y="378" type="line"/>
      <point x="344" y="488"/>
      <point x="323" y="596"/>
      <point x="301" y="713" type="curve"/>
      <point x="261" y="713" type="line"/>
      <point x="235" y="631"/>
      <point x="212" y="558"/>
      <point x="185" y="473" type="curve"/>
      <point x="107" y="238" type="line"/>
      <point x="77" y="151"/>
      <point x="52" y="81"/>
    </contour>
  </outline>
</glyph>
<glyph name="T" format="2">
  <advance width="637"/>
  <unicode hex="0054"/>
  <anchor x="268" y="0" name="bottom"/>
  <anchor x="343" y="357" name="center"/>
  <anchor x="418" y="713" name="top"/>
  <outline>
    <contour>
      <point x="250" y="0" type="curve"/>
      <point x="287" y="0" type="line"/>
      <point x="303" y="81"/>
      <point x="316" y="148"/>
      <point x="334" y="238" type="curve"/>
      <point x="384" y="472" type="line"/>
      <point x="404" y="562"/>
      <point x="419" y="629"/>
      <point x="437" y="710" type="curve"/>
      <point x="437" y="713" type="line"/>
      <point x="400" y="713" type="line"/>
      <point x="399" y="710" type="line"/>
      <point x="383" y="629"/>
      <point x="370" y="561"/>
      <point x="352" y="472" type="curve"/>
      <point x="302" y="238" type="line"/>
      <point x="283" y="151"/>
      <point x="268" y="83"/>
    </contour>
    <contour>
      <point x="127" y="678" type="line"/>
      <point x="186" y="679"/>
      <point x="248" y="681"/>
      <point x="333" y="682" type="curve"/>
      <point x="400" y="682" type="line"/>
      <point x="407" y="713" type="line"/>
      <point x="134" y="713" type="line"/>
    </contour>
    <contour>
      <point x="421" y="682" type="line"/>
      <point x="488" y="682" type="line"/>
      <point x="573" y="681"/>
      <point x="635" y="679"/>
      <point x="694" y="678" type="curve"/>
      <point x="701" y="713" type="line"/>
      <point x="428" y="713" type="line"/>
    </contour>
  </outline>
</glyph>
<glyph name="V" format="2">
  <advance width="668"/>
  <unicode hex="0056"/>
  <anchor x="283" y="0" name="bottom"/>
  <anchor x="433" y="713" name="top"/>
  <outline>
    <contour>
      <point x="259" y="0" type="curve"/>
      <point x="313" y="0" type="line"/>
      <point x="355" y="72"/>
      <point x="407" y="162"/>
      <point x="445" y="227" type="curve"/>
      <point x="578" y="450" type="line"/>
      <point x="625" y="527"/>
      <point x="685" y="626"/>
      <point x="738" y="713" type="curve"/>
      <point x="694" y="713" type="line"/>
      <point x="628" y="600"/>
      <point x="552" y="471"/>
      <point x="486" y="358" type="curve"/>
      <point x="294" y="36" type="line"/>
      <point x="288" y="36" type="line"/>
      <point x="229" y="356" type="line"/>
      <point x="209" y="469"/>
      <point x="186" y="600"/>
      <point x="166" y="713" type="curve"/>
      <point x="127" y="713" type="line"/>
      <point x="144" y="627"/>
      <point x="164" y="524"/>
      <point x="179" y="449" type="curve"/>
      <point x="220" y="227" type="line"/>
      <point x="232" y="159"/>
      <point x="247" y="71"/>
    </contour>
  </outline>
</glyph>
<glyph name="W" format="2">
  <advance width="999"/>
  <unicode hex="0057"/>
  <anchor x="447" y="0" name="bottom"/>
  <anchor x="597" y="713" name="top"/>
  <outline>
    <contour>
      <point x="195" y="0" type="curve"/>
      <point x="254" y="0" type="line"/>
      <point x="308" y="110"/>
      <point x="372" y="243"/>
      <point x="426" y="353" type="curve"/>
      <point x="585" y="672" type="line"/>
      <point x="591" y="672" type="line"/>
      <point x="618" y="353" type="line"/>
      <point x="626" y="243"/>
      <point x="636" y="110"/>
      <point x="645" y="0" type="curve"/>
      <point x="705" y="0" type="line"/>
      <point x="738" y="67"/>
      <point x="780" y="153"/>
      <point x="816" y="226" type="curve"/>
      <point x="931" y="450" type="line"/>
      <point x="974" y="530"/>
      <point x="1025" y="627"/>
      <point x="1071" y="713" type="curve"/>
      <point x="1027" y="713" type="line"/>
      <point x="970" y="601"/>
      <point x="903" y="467"/>
      <point x="847" y="357" type="curve"/>
      <point x="683" y="37" type="line"/>
      <point x="677" y="37" type="line"/>
      <point x="650" y="357" type="line"/>
      <point x="641" y="472"/>
      <point x="631" y="599"/>
      <point x="622" y="713" type="curve"/>
      <point x="567" y="713" type="line"/>
      <point x="512" y="602"/>
      <point x="446" y="467"/>
      <point x="393" y="358" type="curve"/>
      <point x="233" y="37" type="line"/>
      <point x="227" y="37" type="line"/>
      <point x="197" y="350" type="line"/>
      <point x="187" y="464"/>
      <point x="176" y="599"/>
      <point x="166" y="713" type="curve"/>
      <point x="126" y="713" type="line"/>
      <point x="135" y="629"/>
      <point x="147" y="526"/>
      <point x="156" y="445" type="curve"/>
      <point x="177" y="225" type="line"/>
      <point x="183" y="154"/>
      <point x="190" y="71"/>
    </contour>
  </outline>
</glyph>
<glyph name="X" format="2">
  <advance width="659"/>
  <unicode hex="0058"/>
  <outline>
    <contour>
      <point x="-10" y="0" type="curve"/>
      <point x="41" y="0" type="line"/>
      <point x="102" y="69"/>
      <point x="152" y="125"/>
      <point x="209" y="190" type="curve"/>
      <point x="339" y="335" type="line"/>
      <point x="345" y="335" type="line"/>
      <point x="422" y="191" type="line"/>
      <point x="453" y="132"/>
      <point x="485" y="70"/>
      <point x="521" y="0" type="curve"/>
      <point x="565" y="0" type="line"/>
      <point x="523" y="76"/>
      <point x="485" y="143"/>
      <point x="443" y="219" type="curve"/>
      <point x="361" y="374" type="line"/>
      <point x="357" y="357" type="line"/>
      <point x="502" y="515" type="line"/>
      <point x="555" y="572"/>
      <point x="619" y="640"/>
      <point x="687" y="713" type="curve"/>
      <point x="635" y="713" type="line"/>
      <point x="575" y="645"/>
      <point x="512" y="574"/>
      <point x="457" y="513" type="curve"/>
      <point x="349" y="394" type="line"/>
      <point x="343" y="394" type="line"/>
      <point x="283" y="511" type="line"/>
      <point x="253" y="572"/>
      <point x="219" y="642"/>
      <point x="185" y="713" type="curve"/>
      <point x="141" y="713" type="line"/>
      <point x="184" y="633"/>
      <point x="218" y="566"/>
      <point x="253" y="500" type="curve"/>
      <point x="327" y="355" type="line"/>
      <point x="330" y="372" type="line"/>
      <point x="174" y="199" type="line"/>
      <point x="108" y="128"/>
      <point x="49" y="64"/>
    </contour>
  </outline>
</glyph>
<glyph name="Y" format="2">
  <advance width="629"/>
  <unicode hex="0059"/>
  <anchor x="263" y="0" name="bottom"/>
  <anchor x="413" y="713" name="top"/>
  <anchor x="118" y="713" name="topleft"/>
  <outline>
    <contour>
      <point x="311" y="300" type="line"/>
      <point x="341" y="300" type="line"/>
      <point x="557" y="551" type="line"/>
      <point x="603" y="603"/>
      <point x="651" y="658"/>
      <point x="699" y="713" type="curve"/>
      <point x="650" y="713" type="line"/>
      <point x="563" y="609"/>
      <point x="517" y="555"/>
      <point x="445" y="469" type="curve"/>
      <point x="334" y="339" type="line"/>
      <point x="328" y="339" type="line"/>
      <point x="270" y="474" type="line"/>
      <point x="236" y="555"/>
      <point x="214" y="608"/>
      <point x="170" y="713" type="curve"/>
      <point x="129" y="713" type="line"/>
      <point x="158" y="649"/>
      <point x="178" y="604"/>
      <point x="202" y="551" type="curve"/>
    </contour>
    <contour>
      <point x="245" y="0" type="curve"/>
      <point x="282" y="0" type="line"/>
      <point x="298" y="81"/>
      <point x="311" y="148"/>
      <point x="329" y="238" type="curve"/>
      <point x="348" y="326" type="line"/>
      <point x="316" y="326" type="line"/>
      <point x="297" y="238" type="line"/>
      <point x="278" y="151"/>
      <point x="263" y="83"/>
    </contour>
  </outline>
</glyph>
<glyph name="backslash" format="2">
  <advance width="438"/>
  <unicode hex="005C"/>
  <outline>
    <contour>
      <point x="313" y="0" type="curve"/>
      <point x="348" y="0" type="line"/>
      <point x="329" y="73"/>
      <point x="313" y="136"/>
      <point x="289" y="228" type="curve"/>
      <point x="228" y="475" type="line"/>
      <point x="205" y="571"/>
      <point x="189" y="638"/>
      <point x="171" y="713" type="curve"/>
      <point x="136" y="713" type="line"/>
      <point x="156" y="635"/>
      <point x="173" y="568"/>
      <point x="197" y="475" type="curve"/>
      <point x="258" y="228" type="line"/>
      <point x="280" y="136"/>
      <point x="295" y="74"/>
    </contour>
  </outline>
</glyph>
<glyph name="asciicircum" format="2">
  <advance width="590"/>
  <unicode hex="005E"/>
  <outline>
    <contour>
      <point x="518" y="394" type="curve"/>
      <point x="553" y="395" type="line"/>
      <point x="505" y="492"/>
      <point x="458" y="587"/>
      <point x="410" y="684" type="curve"/>
      <point x="358" y="684" type="line"/>
      <point x="272" y="588"/>
      <point x="186" y="493"/>
      <point x="100" y="397" type="curve"/>
      <point x="141" y="397" type="line"/>
      <point x="220" y="483"/>
      <point x="300" y="570"/>
      <point x="379" y="656" type="curve"/>
      <point x="385" y="656" type="line"/>
      <point x="429" y="569"/>
      <point x="474" y="481"/>
    </contour>
  </outline>
</glyph>
<glyph name="c" format="2">
  <advance width="502"/>
  <unicode hex="0063"/>
  <anchor x="238" y="0" name="bottom"/>
  <anchor x="333" y="494" name="top"/>
  <outline>
    <contour>
      <point x="277" y="-9" type="curve" smooth="yes"/>
      <point x="313" y="-9"/>
      <point x="376" y="12"/>
      <point x="403" y="23" type="curve"/>
      <point x="403" y="62" type="line"/>
      <point x="366" y="43"/>
      <point x="304" y="24"/>
      <point x="277" y="23" type="curve"/>
      <point x="140" y="25"/>
      <point x="65" y="116"/>
      <point x="97" y="267" type="curve" smooth="yes"/>
      <point x="125" y="398"/>
      <point x="216" y="467"/>
      <point x="328" y="472" type="curve"/>
      <point x="346" y="472"/>
      <point x="413" y="451"/>
      <point x="477" y="424" type="curve"/>
      <point x="488" y="458" type="line"/>
      <point x="448" y="473"/>
      <point x="362" y="504"/>
      <point x="329" y="504" type="curve" smooth="yes"/>
      <point x="199" y="504"/>
      <point x="94" y="409"/>
      <point x="66" y="273" type="curve" smooth="yes"/>
      <point x="33" y="111"/>
      <point x="116" y="-9"/>
    </contour>
  </outline>
</glyph>
<glyph name="f" format="2">
  <advance width="383"/>
  <unicode hex="0066"/>
  <outline>
    <contour>
      <point x="77" y="0" type="curve"/>
      <point x="112" y="0" type="line"/>
      <point x="127" y="75"/>
      <point x="141" y="140"/>
      <point x="157" y="221" type="curve"/>
      <point x="212" y="480" type="line"/>
      <point x="215" y="494" type="line"/>
      <point x="218" y="507"/>
      <point x="226" y="549"/>
      <point x="232" y="576" type="curve" smooth="yes"/>
      <point x="251" y="665"/>
      <point x="290" y="712"/>
      <point x="383" y="712" type="curve" smooth="yes"/>
      <point x="391" y="712"/>
      <point x="432" y="702"/>
      <point x="465" y="693" type="curve"/>
      <point x="476" y="727" type="line"/>
      <point x="442" y="735"/>
      <point x="393" y="744"/>
      <point x="383" y="744" type="curve" smooth="yes"/>
      <point x="293" y="744"/>
      <point x="228" y="701"/>
      <point x="203" y="581" type="curve" smooth="yes"/>
      <point x="174" y="443"/>
      <point x="157" y="367"/>
      <point x="137" y="271" type="curve"/>
      <point x="127" y="221" type="line"/>
      <point x="108" y="140"/>
      <point x="94" y="75"/>
    </contour>
    <contour>
      <point x="74" y="463" type="line"/>
      <point x="187" y="468" type="line"/>
      <point x="195" y="468" type="line"/>
      <point x="263" y="467"/>
      <point x="331" y="465"/>
      <point x="400" y="463" type="curve"/>
      <point x="407" y="494" type="line"/>
      <point x="81" y="494" type="line"/>
    </contour>
  </outline>
</glyph>
<glyph name="l" format="2">
  <advance width="238"/>
  <unicode hex="006C"/>
  <anchor x="66" y="0" name="bottom"/>
  <anchor x="153" y="409" name="center"/>
  <anchor x="220" y="723" name="top"/>
  <anchor x="246" y="494" name="topright"/>
  <outline>
    <contour>
      <point x="48" y="0" type="curve"/>
      <point x="83" y="0" type="line"/>
      <point x="98" y="75"/>
      <point x="112" y="140"/>
      <point x="128" y="221" type="curve"/>
      <point x="186" y="494" type="line"/>
      <point x="205" y="579"/>
      <point x="223" y="658"/>
      <point x="243" y="740" type="curve"/>
      <point x="201" y="729" type="line"/>
      <point x="187" y="657"/>
      <point x="172" y="579"/>
      <point x="156" y="494" type="curve"/>
      <point x="98" y="221" type="line"/>
      <point x="79" y="140"/>
      <point x="65" y="75"/>
    </contour>
  </outline>
</glyph>
<glyph name="m" format="2">
  <advance width="877"/>
  <unicode hex="006D"/>
  <anchor x="399" y="0" name="bottom"/>
  <anchor x="503" y="494" name="top"/>
  <outline>
    <contour>
      <point x="54" y="0" type="curve"/>
      <point x="89" y="0" type="line"/>
      <point x="104" y="75"/>
      <point x="117" y="140"/>
      <point x="134" y="221" type="curve"/>
      <point x="163" y="354" type="line"/>
      <point x="235" y="421"/>
      <point x="315" y="472"/>
      <point x="361" y="472" type="curve" smooth="yes"/>
      <point x="446" y="472"/>
      <point x="472" y="416"/>
      <point x="450" y="313" type="curve"/>
      <point x="431" y="221" type="line"/>
      <point x="412" y="140"/>
      <point x="398" y="75"/>
      <point x="381" y="0" type="curve"/>
      <point x="416" y="0" type="line"/>
      <point x="431" y="75"/>
      <point x="444" y="140"/>
      <point x="461" y="221" type="curve"/>
      <point x="469" y="259"/>
      <point x="475" y="284"/>
      <point x="481" y="311" type="curve" smooth="yes"/>
      <point x="486" y="335"/>
      <point x="489" y="357"/>
      <point x="489" y="376" type="curve"/>
      <point x="488" y="380" type="line"/>
      <point x="486" y="459"/>
      <point x="442" y="504"/>
      <point x="362" y="504" type="curve" smooth="yes"/>
      <point x="304" y="504"/>
      <point x="222" y="444"/>
      <point x="176" y="405" type="curve"/>
      <point x="171" y="405" type="line"/>
      <point x="186" y="497" type="line"/>
      <point x="153" y="494" type="line"/>
      <point x="145" y="443"/>
      <point x="138" y="390"/>
      <point x="130" y="342" type="curve"/>
      <point x="104" y="221" type="line"/>
      <point x="85" y="140"/>
      <point x="71" y="75"/>
    </contour>
    <contour>
      <point x="702" y="0" type="curve"/>
      <point x="737" y="0" type="line"/>
      <point x="752" y="75"/>
      <point x="765" y="140"/>
      <point x="782" y="221" type="curve"/>
      <point x="790" y="259"/>
      <point x="796" y="284"/>
      <point x="802" y="311" type="curve" smooth="yes"/>
      <point x="829" y="433"/>
      <point x="783" y="504"/>
      <point x="683" y="504" type="curve" smooth="yes"/>
      <point x="625" y="504"/>
      <point x="539" y="442"/>
      <point x="492" y="401" type="curve"/>
      <point x="485" y="401" type="line"/>
      <point x="484" y="354" type="line"/>
      <point x="556" y="421"/>
      <point x="636" y="472"/>
      <point x="682" y="472" type="curve" smooth="yes"/>
      <point x="767" y="472"/>
      <point x="793" y="416"/>
      <point x="771" y="313" type="curve"/>
      <point x="752" y="221" type="line"/>
      <point x="733" y="140"/>
      <point x="719" y="75"/>
    </contour>
  </outline>
</glyph>
<glyph name="q" format="2">
  <advance width="586"/>
  <unicode hex="0071"/>
  <outline>
    <contour>
      <point x="359" y="-194" type="curve"/>
      <point x="395" y="-192" type="line"/>
      <point x="410" y="-117"/>
      <point x="423" y="-52"/>
      <point x="440" y="29" type="curve"/>
      <point x="506" y="342" type="line"/>
      <point x="518" y="391"/>
      <point x="534" y="445"/>
      <point x="548" y="497" type="curve"/>
      <point x="515" y="494" type="line"/>
      <point x="496" y="422" type="line"/>
      <point x="490" y="422" type="line"/>
      <point x="447" y="458"/>
      <point x="366" y="504"/>
      <point x="310" y="504" type="curve" smooth="yes"/>
      <point x="188" y="504"/>
      <point x="98" y="419"/>
      <point x="68" y="275" type="curve" smooth="yes"/>
      <point x="37" y="125"/>
      <point x="99" y="-9"/>
      <point x="252" y="-9" type="curve" smooth="yes"/>
      <point x="296" y="-9"/>
      <point x="368" y="28"/>
      <point x="414" y="75" type="curve"/>
      <point x="420" y="75" type="line"/>
      <point x="410" y="29" type="line"/>
      <point x="392" y="-52"/>
      <point x="376" y="-119"/>
    </contour>
    <contour>
      <point x="253" y="23" type="curve"/>
      <point x="118" y="25"/>
      <point x="70" y="136"/>
      <point x="99" y="271" type="curve" smooth="yes"/>
      <point x="124" y="388"/>
      <point x="189" y="469"/>
      <point x="310" y="472" type="curve"/>
      <point x="358" y="471"/>
      <point x="434" y="431"/>
      <point x="486" y="387" type="curve"/>
      <point x="432" y="136" type="line"/>
      <point x="382" y="76"/>
      <point x="306" y="25"/>
    </contour>
  </outline>
</glyph>
<glyph name="r" format="2">
  <advance width="394"/>
  <unicode hex="0072"/>
  <anchor x="68" y="0" name="bottom"/>
  <anchor x="284" y="494" name="top"/>
  <outline>
    <contour>
      <point x="54" y="0" type="curve"/>
      <point x="89" y="0" type="line"/>
      <point x="104" y="75"/>
      <point x="117" y="140"/>
      <point x="134" y="221" type="curve"/>
      <point x="160" y="338" type="line"/>
      <point x="247" y="426"/>
      <point x="313" y="472"/>
      <point x="345" y="472" type="curve" smooth="yes"/>
      <point x="353" y="472"/>
      <point x="381" y="465"/>
      <point x="406" y="459" type="curve"/>
      <point x="416" y="493" type="line"/>
      <point x="391" y="500"/>
      <point x="358" y="504"/>
      <point x="347" y="504" type="curve" smooth="yes"/>
      <point x="308" y="504"/>
      <point x="247" y="464"/>
      <point x="173" y="391" type="curve"/>
      <point x="168" y="391" type="line"/>
      <point x="186" y="497" type="line"/>
      <point x="153" y="494" type="line"/>
      <point x="145" y="443"/>
      <point x="138" y="390"/>
      <point x="130" y="342" type="curve"/>
      <point x="104" y="221" type="line"/>
      <point x="85" y="140"/>
      <point x="71" y="75"/>
    </contour>
  </outline>
</glyph>
<glyph name="v" format="2">
  <advance width="496"/>
  <unicode hex="0076"/>
  <outline>
    <contour>
      <point x="175" y="0" type="curve"/>
      <point x="219" y="0" type="line"/>
      <point x="256" y="62"/>
      <point x="292" y="123"/>
      <point x="328" y="185" type="curve"/>
      <point x="381" y="273" type="line"/>
      <point x="425" y="346"/>
      <point x="471" y="421"/>
      <point x="516" y="494" type="curve"/>
      <point x="475" y="494" type="line"/>
      <point x="420" y="400"/>
      <point x="368" y="311"/>
      <point x="312" y="215" type="curve"/>
      <point x="205" y="35" type="line"/>
      <point x="199" y="35" type="line"/>
      <point x="168" y="215" type="line"/>
      <point x="152" y="310"/>
      <point x="137" y="401"/>
      <point x="121" y="496" type="curve"/>
      <point x="86" y="494" type="line"/>
      <point x="100" y="422"/>
      <point x="114" y="347"/>
      <point x="128" y="275" type="curve"/>
      <point x="143" y="187" type="line"/>
      <point x="153" y="128"/>
      <point x="165" y="60"/>
    </contour>
  </outline>
</glyph>
<glyph name="w" format="2">
  <advance width="785"/>
  <unicode hex="0077"/>
  <anchor x="342" y="0" name="bottom"/>
  <anchor x="446" y="494" name="top"/>
  <outline>
    <contour>
      <point x="150" y="0" type="curve"/>
      <point x="195" y="0" type="line"/>
      <point x="242" y="90"/>
      <point x="293" y="186"/>
      <point x="340" y="275" type="curve"/>
      <point x="431" y="446" type="line"/>
      <point x="437" y="446" type="line"/>
      <point x="457" y="277" type="line"/>
      <point x="466" y="193"/>
      <point x="478" y="85"/>
      <point x="487" y="0" type="curve"/>
      <point x="535" y="0" type="line"/>
      <point x="567" y="60"/>
      <point x="600" y="123"/>
      <point x="635" y="189" type="curve"/>
      <point x="682" y="276" type="line"/>
      <point x="722" y="348"/>
      <point x="762" y="420"/>
      <point x="804" y="494" type="curve"/>
      <point x="763" y="494" type="line"/>
      <point x="719" y="411"/>
      <point x="664" y="307"/>
      <point x="616" y="216" type="curve"/>
      <point x="519" y="36" type="line"/>
      <point x="514" y="36" type="line"/>
      <point x="493" y="215" type="line"/>
      <point x="483" y="306"/>
      <point x="472" y="405"/>
      <point x="462" y="494" type="curve"/>
      <point x="423" y="494" type="line"/>
      <point x="373" y="399"/>
      <point x="324" y="306"/>
      <point x="275" y="213" type="curve"/>
      <point x="181" y="36" type="line"/>
      <point x="176" y="36" type="line"/>
      <point x="154" y="209" type="line"/>
      <point x="144" y="300"/>
      <point x="132" y="403"/>
      <point x="121" y="496" type="curve"/>
      <point x="85" y="494" type="line"/>
      <point x="96" y="419"/>
      <point x="106" y="349"/>
      <point x="116" y="276" type="curve"/>
      <point x="128" y="187" type="line"/>
      <point x="136" y="122"/>
      <point x="143" y="62"/>
    </contour>
  </outline>
</glyph>
<glyph name="x" format="2">
  <advance width="510"/>
  <unicode hex="0078"/>
  <outline>
    <contour>
      <point x="-17" y="0" type="curve"/>
      <point x="31" y="0" type="line"/>
      <point x="77" y="49"/>
      <point x="111" y="85"/>
      <point x="156" y="133" type="curve"/>
      <point x="246" y="227" type="line"/>
      <point x="251" y="227" type="line"/>
      <point x="307" y="131" type="line"/>
      <point x="334" y="83"/>
      <point x="353" y="48"/>
      <point x="380" y="0" type="curve"/>
      <point x="421" y="0" type="line"/>
      <point x="384" y="61"/>
      <point x="360" y="101"/>
      <point x="331" y="149" type="curve"/>
      <point x="266" y="260" type="line"/>
      <point x="264" y="246" type="line"/>
      <point x="365" y="351" type="line"/>
      <point x="413" y="400"/>
      <point x="442" y="430"/>
      <point x="505" y="494" type="curve"/>
      <point x="457" y="494" type="line"/>
      <point x="411" y="445"/>
      <point x="378" y="409"/>
      <point x="336" y="364" type="curve"/>
      <point x="252" y="276" type="line"/>
      <point x="248" y="276" type="line"/>
      <point x="200" y="364" type="line"/>
      <point x="178" y="406"/>
      <point x="157" y="447"/>
      <point x="131" y="496" type="curve"/>
      <point x="92" y="494" type="line"/>
      <point x="126" y="434"/>
      <point x="146" y="398"/>
      <point x="175" y="347" type="curve"/>
      <point x="232" y="242" type="line"/>
      <point x="234" y="258" type="line"/>
      <point x="129" y="149" type="line"/>
      <point x="80" y="99"/>
      <point x="47" y="65"/>
    </contour>
  </outline>
</glyph>
<glyph name="y" format="2">
  <advance width="500"/>
  <unicode hex="0079"/>
  <anchor x="299" y="0" name="bottom"/>
  <anchor x="303" y="494" name="top"/>
  <outline>
    <contour>
      <point x="58" y="-194" type="curve"/>
      <point x="99" y="-192" type="line"/>
      <point x="142" y="-121"/>
      <point x="191" y="-39"/>
      <point x="268" y="88" type="curve"/>
      <point x="353" y="227" type="line"/>
      <point x="430" y="352"/>
      <point x="467" y="412"/>
      <point x="518" y="494" type="curve"/>
      <point x="477" y="494" type="line"/>
      <point x="422" y="401"/>
      <point x="368" y="311"/>
      <point x="311" y="215" type="curve"/>
      <point x="201" y="35" type="line"/>
      <point x="195" y="35" type="line"/>
      <point x="166" y="214" type="line"/>
      <point x="151" y="310"/>
      <point x="136" y="400"/>
      <point x="121" y="496" type="curve"/>
      <point x="86" y="494" type="line"/>
      <point x="99" y="423"/>
      <point x="113" y="347"/>
      <point x="126" y="276" type="curve"/>
      <point x="141" y="186" type="line"/>
      <point x="152" y="118"/>
      <point x="163" y="49"/>
      <point x="174" y="-19" type="curve"/>
      <point x="176" y="-4" type="line"/>
      <point x="137" y="-67"/>
      <point x="97" y="-131"/>
    </contour>
  </outline>
</glyph>
<glyph name="braceleft" format="2">
  <advance width="372"/>
  <unicode hex="007B"/>
  <outline>
    <contour>
      <point x="215" y="-112" type="curve" smooth="yes"/>
      <point x="287" y="-112" type="line"/>
      <point x="293" y="-81" type="line"/>
      <point x="260" y="-82"/>
      <point x="233" y="-82"/>
      <point x="216" y="-82" type="curve"/>
      <point x="142" y="-82"/>
      <point x="115" y="-39"/>
      <point x="127" y="23" type="curve" smooth="yes"/>
      <point x="172" y="247" type="line" smooth="yes"/>
      <point x="173" y="253"/>
      <point x="141" y="299"/>
      <point x="119" y="318" type="curve"/>
      <point x="120" y="324" type="line"/>
      <point x="149" y="342"/>
      <point x="204" y="396"/>
      <point x="205" y="402" type="curve" smooth="yes"/>
      <point x="257" y="641" type="line" smooth="yes"/>
      <point x="271" y="706"/>
      <point x="309" y="730"/>
      <point x="378" y="730" type="curve"/>
      <point x="398" y="730"/>
      <point x="438" y="729"/>
      <point x="463" y="729" type="curve"/>
      <point x="470" y="760" type="line"/>
      <point x="379" y="760" type="line" smooth="yes"/>
      <point x="294" y="760"/>
      <point x="240" y="725"/>
      <point x="224" y="645" type="curve"/>
      <point x="222" y="635"/>
      <point x="186" y="456"/>
      <point x="184" y="446" type="curve"/>
      <point x="170" y="376"/>
      <point x="98" y="338"/>
      <point x="67" y="338" type="curve" smooth="yes"/>
      <point x="29" y="338" type="line"/>
      <point x="23" y="309" type="line"/>
      <point x="61" y="309" type="line" smooth="yes"/>
      <point x="92" y="309"/>
      <point x="149" y="281"/>
      <point x="132" y="201" type="curve"/>
      <point x="130" y="191"/>
      <point x="97" y="38"/>
      <point x="95" y="28" type="curve"/>
      <point x="79" y="-49"/>
      <point x="121" y="-112"/>
    </contour>
  </outline>
</glyph>
<glyph name="sterling" format="2">
  <advance width="579"/>
  <unicode hex="00A3"/>
  <outline>
    <contour>
      <point x="23" y="0" type="line"/>
      <point x="492" y="0" type="line"/>
      <point x="499" y="33" type="line"/>
      <point x="419" y="32"/>
      <point x="288" y="31"/>
      <point x="198" y="30" type="curve"/>
      <point x="50" y="30" type="line"/>
      <point x="56" y="11" type="line"/>
      <point x="149" y="138"/>
      <point x="171" y="175"/>
      <point x="179" y="214" type="curve" smooth="yes"/>
      <point x="235" y="474" type="line" smooth="yes"/>
      <point x="263" y="604"/>
      <point x="322" y="663"/>
      <point x="429" y="664" type="curve"/>
      <point x="448" y="664"/>
      <point x="517" y="643"/>
      <point x="583" y="616" type="curve"/>
      <point x="595" y="650" type="line"/>
      <point x="553" y="665"/>
      <point x="464" y="696"/>
      <point x="430" y="696" type="curve" smooth="yes"/>
      <point x="320" y="696"/>
      <point x="235" y="629"/>
      <point x="204" y="481" type="curve" smooth="yes"/>
      <point x="186" y="400"/>
      <point x="165" y="296"/>
      <point x="148" y="215" type="curve"/>
      <point x="142" y="186"/>
      <point x="119" y="146"/>
      <point x="29" y="27" type="curve"/>
    </contour>
    <contour>
      <point x="91" y="367" type="line"/>
      <point x="149" y="368"/>
      <point x="217" y="369"/>
      <point x="252" y="369" type="curve"/>
      <point x="282" y="369" type="line"/>
      <point x="317" y="369"/>
      <point x="383" y="368"/>
      <point x="441" y="367" type="curve"/>
      <point x="448" y="399" type="line"/>
      <point x="390" y="398"/>
      <point x="323" y="397"/>
      <point x="288" y="397" type="curve"/>
      <point x="258" y="397" type="line"/>
      <point x="223" y="397"/>
      <point x="156" y="398"/>
      <point x="98" y="399" type="curve"/>
    </contour>
  </outline>
</glyph>
<glyph name="currency" format="2">
  <advance width="600"/>
  <unicode hex="00A4"/>
  <outline>
    <contour>
      <point x="301" y="130" type="curve" smooth="yes"/>
      <point x="405" y="130"/>
      <point x="476" y="185"/>
      <point x="498" y="298" type="curve" smooth="yes"/>
      <point x="521" y="414"/>
      <point x="442" y="511"/>
      <point x="329" y="511" type="curve" smooth="yes"/>
      <point x="232" y="511"/>
      <point x="152" y="457"/>
      <point x="130" y="344" type="curve" smooth="yes"/>
      <point x="107" y="227"/>
      <point x="184" y="130"/>
    </contour>
    <contour>
      <point x="76" y="74" type="line"/>
      <point x="118" y="114"/>
      <point x="166" y="160"/>
      <point x="191" y="184" type="curve"/>
      <point x="171" y="206" type="line"/>
      <point x="145" y="183"/>
      <point x="95" y="138"/>
      <point x="53" y="99" type="curve"/>
    </contour>
    <contour>
      <point x="303" y="162" type="curve"/>
      <point x="206" y="164"/>
      <point x="142" y="243"/>
      <point x="161" y="340" type="curve" smooth="yes"/>
      <point x="179" y="434"/>
      <point x="246" y="477"/>
      <point x="327" y="479" type="curve"/>
      <point x="421" y="477"/>
      <point x="486" y="398"/>
      <point x="467" y="302" type="curve" smooth="yes"/>
      <point x="448" y="207"/>
      <point x="390" y="164"/>
    </contour>
    <contour>
      <point x="198" y="426" type="curve"/>
      <point x="219" y="446" type="line"/>
      <point x="196" y="472"/>
      <point x="151" y="522"/>
      <point x="112" y="564" type="curve"/>
      <point x="88" y="541" type="line"/>
      <point x="127" y="500"/>
      <point x="173" y="451"/>
    </contour>
    <contour>
      <point x="520" y="78" type="curve"/>
      <point x="544" y="101" type="line"/>
      <point x="505" y="142"/>
      <point x="459" y="191"/>
      <point x="434" y="216" type="curve"/>
      <point x="413" y="196" type="line"/>
      <point x="436" y="170"/>
      <point x="481" y="120"/>
    </contour>
    <contour>
      <point x="461" y="436" type="line"/>
      <point x="487" y="459"/>
      <point x="537" y="504"/>
      <point x="579" y="543" type="curve"/>
      <point x="556" y="568" type="line"/>
      <point x="514" y="528"/>
      <point x="466" y="482"/>
      <point x="441" y="458" type="curve"/>
    </contour>
  </outline>
</glyph>
<glyph name="ordfeminine" format="2">
  <advance width="388"/>
  <unicode hex="00AA"/>
  <outline>
    <contour>
      <point x="193" y="335" type="curve" smooth="yes"/>
      <point x="230" y="335"/>
      <point x="289" y="372"/>
      <point x="329" y="407" type="curve"/>
      <point x="334" y="407" type="line"/>
      <point x="336" y="342" type="line"/>
      <point x="366" y="342" type="line"/>
      <point x="365" y="377"/>
      <point x="364" y="404"/>
      <point x="363" y="436" type="curve"/>
      <point x="377" y="504" type="line" smooth="yes"/>
      <point x="384" y="538"/>
      <point x="392" y="568"/>
      <point x="395" y="582" type="curve" smooth="yes"/>
      <point x="413" y="667"/>
      <point x="376" y="725"/>
      <point x="286" y="725" type="curve" smooth="yes"/>
      <point x="259" y="725"/>
      <point x="193" y="708"/>
      <point x="159" y="699" type="curve"/>
      <point x="154" y="664" type="line"/>
      <point x="212" y="681"/>
      <point x="265" y="695"/>
      <point x="282" y="695" type="curve" smooth="yes"/>
      <point x="349" y="695"/>
      <point x="385" y="663"/>
      <point x="365" y="583" type="curve"/>
      <point x="229" y="556" type="line" smooth="yes"/>
      <point x="167" y="544"/>
      <point x="105" y="525"/>
      <point x="89" y="454" type="curve" smooth="yes"/>
      <point x="73" y="385"/>
      <point x="118" y="335"/>
    </contour>
    <contour>
      <point x="198" y="363" type="curve" smooth="yes"/>
      <point x="143" y="363"/>
      <point x="106" y="391"/>
      <point x="119" y="454" type="curve" smooth="yes"/>
      <point x="130" y="506"/>
      <point x="179" y="517"/>
      <point x="233" y="528" type="curve" smooth="yes"/>
      <point x="323" y="546"/>
      <point x="340" y="552"/>
      <point x="360" y="560" type="curve"/>
      <point x="336" y="449" type="line"/>
      <point x="283" y="390"/>
      <point x="226" y="363"/>
    </contour>
  </outline>
</glyph>
<glyph name="logicalnot" format="2">
  <advance width="560"/>
  <unicode hex="00AC"/>
  <outline>
    <contour>
      <point x="419" y="65" type="curve"/>
      <point x="453" y="65" type="line"/>
      <point x="465" y="125"/>
      <point x="478" y="190"/>
      <point x="485" y="225" type="curve"/>
      <point x="504" y="312" type="line"/>
      <point x="446" y="311"/>
      <point x="378" y="310"/>
      <point x="343" y="310" type="curve"/>
      <point x="243" y="310" type="line"/>
      <point x="208" y="310"/>
      <point x="142" y="311"/>
      <point x="84" y="312" type="curve"/>
      <point x="77" y="278" type="line"/>
      <point x="135" y="279"/>
      <point x="202" y="280"/>
      <point x="237" y="280" type="curve"/>
      <point x="337" y="280" type="line"/>
      <point x="370" y="280"/>
      <point x="433" y="279"/>
      <point x="487" y="278" type="curve"/>
      <point x="471" y="300" type="line"/>
      <point x="455" y="225" type="line"/>
      <point x="447" y="189"/>
      <point x="432" y="123"/>
    </contour>
  </outline>
</glyph>
<glyph name="degree" format="2">
  <advance width="454"/>
  <unicode hex="00B0"/>
  <outline>
    <contour>
      <point x="271" y="328" type="curve" smooth="yes"/>
      <point x="367" y="328"/>
      <point x="443" y="381"/>
      <point x="466" y="490" type="curve" smooth="yes"/>
      <point x="488" y="596"/>
      <point x="413" y="696"/>
      <point x="298" y="696" type="curve" smooth="yes"/>
      <point x="198" y="696"/>
      <point x="123" y="636"/>
      <point x="100" y="530" type="curve" smooth="yes"/>
      <point x="76" y="421"/>
      <point x="150" y="328"/>
    </contour>
    <contour>
      <point x="272" y="359" type="curve"/>
      <point x="165" y="361"/>
      <point x="111" y="432"/>
      <point x="130" y="526" type="curve" smooth="yes"/>
      <point x="148" y="617"/>
      <point x="209" y="663"/>
      <point x="297" y="665" type="curve"/>
      <point x="398" y="663"/>
      <point x="455" y="586"/>
      <point x="436" y="495" type="curve" smooth="yes"/>
      <point x="416" y="401"/>
      <point x="360" y="361"/>
    </contour>
  </outline>
</glyph>
<glyph name="plusminus" format="2">
  <advance width="560"/>
  <unicode hex="00B1"/>
  <outline>
    <contour>
      <point x="17" y="-2" type="line"/>
      <point x="75" y="-1"/>
      <point x="142" y="0"/>
      <point x="177" y="0" type="curve"/>
      <point x="277" y="0" type="line"/>
      <point x="312" y="0"/>
      <point x="379" y="-1"/>
      <point x="437" y="-2" type="curve"/>
      <point x="444" y="32" type="line"/>
      <point x="386" y="31"/>
      <point x="319" y="30"/>
      <point x="284" y="30" type="curve"/>
      <point x="184" y="30" type="line"/>
      <point x="149" y="30"/>
      <point x="82" y="31"/>
      <point x="24" y="32" type="curve"/>
    </contour>
    <contour>
      <point x="92" y="351" type="line"/>
      <point x="150" y="352"/>
      <point x="218" y="353"/>
      <point x="253" y="353" type="curve"/>
      <point x="353" y="353" type="line"/>
      <point x="388" y="353"/>
      <point x="454" y="352"/>
      <point x="512" y="351" type="curve"/>
      <point x="519" y="385" type="line"/>
      <point x="461" y="384"/>
      <point x="394" y="383"/>
      <point x="359" y="383" type="curve"/>
      <point x="259" y="383" type="line"/>
      <point x="224" y="383"/>
      <point x="157" y="384"/>
      <point x="99" y="385" type="curve"/>
    </contour>
    <contour>
      <point x="239" y="138" type="curve"/>
      <point x="274" y="138" type="line"/>
      <point x="286" y="198"/>
      <point x="299" y="263"/>
      <point x="306" y="298" type="curve"/>
      <point x="336" y="438" type="line"/>
      <point x="344" y="473"/>
      <point x="359" y="540"/>
      <point x="372" y="598" type="curve"/>
      <point x="337" y="598" type="line"/>
      <point x="326" y="541"/>
      <point x="312" y="472"/>
      <point x="305" y="438" type="curve"/>
      <point x="275" y="298" type="line"/>
      <point x="268" y="264"/>
      <point x="253" y="197"/>
    </contour>
  </outline>
</glyph>
<glyph name="Thorn" format="2">
  <advance width="610"/>
  <unicode hex="00DE"/>
  <outline>
    <contour>
      <point x="56" y="0" type="curve"/>
      <point x="93" y="0" type="line"/>
      <point x="109" y="81"/>
      <point x="122" y="148"/>
      <point x="140" y="238" type="curve"/>
      <point x="190" y="473" type="line"/>
      <point x="210" y="563"/>
      <point x="225" y="632"/>
      <point x="243" y="713" type="curve"/>
      <point x="206" y="713" type="line"/>
      <point x="190" y="634"/>
      <point x="176" y="562"/>
      <point x="158" y="473" type="curve"/>
      <point x="108" y="238" type="line"/>
      <point x="89" y="151"/>
      <point x="74" y="83"/>
    </contour>
    <contour>
      <point x="299" y="169" type="curve"/>
      <point x="504" y="169"/>
      <point x="559" y="241"/>
      <point x="585" y="363" type="curve" smooth="yes"/>
      <point x="611" y="486"/>
      <point x="544" y="573"/>
      <point x="390" y="573" type="curve"/>
      <point x="293" y="573"/>
      <point x="234" y="572"/>
      <point x="206" y="572" type="curve"/>
      <point x="199" y="541" type="line"/>
      <point x="386" y="541" type="line" smooth="yes"/>
      <point x="471" y="541"/>
      <point x="583" y="516"/>
      <point x="552" y="368" type="curve" smooth="yes"/>
      <point x="524" y="236"/>
      <point x="460" y="200"/>
      <point x="302" y="200" type="curve" smooth="yes"/>
      <point x="127" y="200" type="line"/>
      <point x="121" y="170" type="line"/>
      <point x="160" y="170"/>
      <point x="248" y="169"/>
    </contour>
  </outline>
</glyph>
<glyph name="thorn" format="2">
  <advance width="590"/>
  <unicode hex="00FE"/>
  <outline>
    <contour>
      <point x="6" y="-194" type="curve"/>
      <point x="42" y="-192" type="line"/>
      <point x="57" y="-117"/>
      <point x="70" y="-52"/>
      <point x="87" y="29" type="curve"/>
      <point x="99" y="83" type="line"/>
      <point x="105" y="83" type="line"/>
      <point x="154" y="36"/>
      <point x="227" y="-9"/>
      <point x="280" y="-9" type="curve" smooth="yes"/>
      <point x="402" y="-9"/>
      <point x="492" y="76"/>
      <point x="522" y="220" type="curve" smooth="yes"/>
      <point x="553" y="370"/>
      <point x="491" y="504"/>
      <point x="338" y="504" type="curve" smooth="yes"/>
      <point x="294" y="504"/>
      <point x="214" y="459"/>
      <point x="179" y="432" type="curve"/>
      <point x="173" y="432" type="line"/>
      <point x="186" y="494" type="line"/>
      <point x="205" y="579"/>
      <point x="223" y="658"/>
      <point x="243" y="740" type="curve"/>
      <point x="201" y="729" type="line"/>
      <point x="187" y="657"/>
      <point x="172" y="579"/>
      <point x="156" y="494" type="curve"/>
      <point x="57" y="29" type="line"/>
      <point x="39" y="-52"/>
      <point x="23" y="-119"/>
    </contour>
    <contour>
      <point x="280" y="23" type="curve"/>
      <point x="235" y="25"/>
      <point x="156" y="65"/>
      <point x="107" y="123" type="curve"/>
      <point x="162" y="381" type="line"/>
      <point x="217" y="431"/>
      <point x="305" y="471"/>
      <point x="337" y="472" type="curve"/>
      <point x="472" y="469"/>
      <point x="519" y="360"/>
      <point x="491" y="224" type="curve" smooth="yes"/>
      <point x="467" y="109"/>
      <point x="401" y="26"/>
    </contour>
  </outline>
</glyph>
<glyph name="idotless" format="2">
  <advance width="238"/>
  <unicode hex="0131"/>
  <anchor x="67" y="0" name="bottom"/>
  <anchor x="84" y="0" name="ogonek"/>
  <anchor x="172" y="494" name="top"/>
  <outline>
    <contour>
      <point x="49" y="0" type="curve"/>
      <point x="84" y="0" type="line"/>
      <point x="99" y="75"/>
      <point x="113" y="140"/>
      <point x="129" y="221" type="curve"/>
      <point x="139" y="271" type="line"/>
      <point x="157" y="352"/>
      <point x="173" y="419"/>
      <point x="190" y="494" type="curve"/>
      <point x="154" y="494" type="line"/>
      <point x="139" y="419"/>
      <point x="125" y="352"/>
      <point x="109" y="271" type="curve"/>
      <point x="99" y="221" type="line"/>
      <point x="80" y="140"/>
      <point x="66" y="75"/>
    </contour>
  </outline>
</glyph>
<glyph name="kgreenlandic" format="2">
  <advance width="508"/>
  <unicode hex="0138"/>
  <outline>
    <contour>
      <point x="382" y="0" type="curve"/>
      <point x="434" y="0" type="line"/>
      <point x="374" y="57"/>
      <point x="314" y="113"/>
      <point x="254" y="170" type="curve"/>
      <point x="161" y="259" type="line"/>
      <point x="166" y="240" type="line"/>
      <point x="279" y="323" type="line"/>
      <point x="358" y="380"/>
      <point x="438" y="437"/>
      <point x="519" y="494" type="curve"/>
      <point x="461" y="494" type="line"/>
      <point x="395" y="445"/>
      <point x="328" y="395"/>
      <point x="262" y="346" type="curve"/>
      <point x="153" y="266" type="line"/>
      <point x="123" y="266" type="line"/>
      <point x="117" y="238" type="line"/>
      <point x="141" y="238" type="line"/>
      <point x="236" y="147" type="line"/>
      <point x="285" y="98"/>
      <point x="334" y="49"/>
    </contour>
    <contour>
      <point x="40" y="0" type="curve"/>
      <point x="75" y="0" type="line"/>
      <point x="90" y="75"/>
      <point x="103" y="140"/>
      <point x="120" y="221" type="curve"/>
      <point x="131" y="271" type="line"/>
      <point x="149" y="352"/>
      <point x="166" y="421"/>
      <point x="183" y="496" type="curve"/>
      <point x="146" y="494" type="line"/>
      <point x="131" y="419"/>
      <point x="117" y="352"/>
      <point x="101" y="271" type="curve"/>
      <point x="90" y="221" type="line"/>
      <point x="71" y="140"/>
      <point x="57" y="75"/>
    </contour>
  </outline>
</glyph>
<glyph name="lslash" format="2">
  <advance width="258"/>
  <unicode hex="0142"/>
  <outline>
    <contour>
      <point x="6" y="286" type="line"/>
      <point x="54" y="300"/>
      <point x="92" y="311"/>
      <point x="133" y="323" type="curve"/>
      <point x="165" y="332" type="line"/>
      <point x="200" y="341"/>
      <point x="245" y="353"/>
      <point x="292" y="365" type="curve"/>
      <point x="289" y="396" type="line"/>
      <point x="241" y="382"/>
      <point x="204" y="371"/>
      <point x="163" y="359" type="curve"/>
      <point x="131" y="350" type="line"/>
      <point x="93" y="340"/>
      <point x="50" y="329"/>
      <point x="4" y="317" type="curve"/>
    </contour>
    <contour>
      <point x="58" y="0" type="curve"/>
      <point x="93" y="0" type="line"/>
      <point x="108" y="75"/>
      <point x="122" y="140"/>
      <point x="138" y="221" type="curve"/>
      <point x="196" y="494" type="line"/>
      <point x="215" y="579"/>
      <point x="233" y="658"/>
      <point x="253" y="740" type="curve"/>
      <point x="211" y="729" type="line"/>
      <point x="197" y="657"/>
      <point x="182" y="579"/>
      <point x="166" y="494" type="curve"/>
      <point x="108" y="221" type="line"/>
      <point x="89" y="140"/>
      <point x="75" y="75"/>
    </contour>
  </outline>
</glyph>
<glyph name="Eng" format="2">
  <advance width="758"/>
  <unicode hex="014A"/>
  <outline>
    <contour>
      <point x="423" y="-192" type="curve"/>
      <point x="467" y="-192" type="line"/>
      <point x="504" y="-140"/>
      <point x="594" y="-13"/>
      <point x="597" y="3" type="curve" smooth="yes"/>
      <point x="613" y="81"/>
      <point x="628" y="158"/>
      <point x="645" y="238" type="curve"/>
      <point x="695" y="473" type="line"/>
      <point x="715" y="563"/>
      <point x="730" y="632"/>
      <point x="748" y="713" type="curve"/>
      <point x="711" y="713" type="line"/>
      <point x="695" y="634"/>
      <point x="681" y="562"/>
      <point x="663" y="473" type="curve"/>
      <point x="574" y="56" type="line"/>
      <point x="570" y="56" type="line"/>
      <point x="441" y="315" type="line"/>
      <point x="378" y="443"/>
      <point x="314" y="573"/>
      <point x="245" y="713" type="curve"/>
      <point x="206" y="713" type="line"/>
      <point x="190" y="634"/>
      <point x="176" y="562"/>
      <point x="158" y="473" type="curve"/>
      <point x="108" y="238" type="line"/>
      <point x="89" y="151"/>
      <point x="74" y="83"/>
      <point x="56" y="0" type="curve"/>
      <point x="93" y="0" type="line"/>
      <point x="109" y="81"/>
      <point x="122" y="148"/>
      <point x="140" y="238" type="curve"/>
      <point x="229" y="661" type="line"/>
      <point x="233" y="661" type="line"/>
      <point x="363" y="400" type="line"/>
      <point x="440" y="244"/>
      <point x="503" y="116"/>
      <point x="560" y="0" type="curve"/>
      <point x="580" y="0" type="line"/>
      <point x="569" y="36" type="line"/>
      <point x="560" y="0" type="line"/>
      <point x="505" y="-77"/>
      <point x="466" y="-132"/>
    </contour>
  </outline>
</glyph>
<glyph name="verticallinemod" format="2">
  <advance width="190"/>
  <unicode hex="02C8"/>
  <outline>
    <contour>
      <point x="171" y="534" type="curve"/>
      <point x="141" y="534" type="line"/>
      <point x="157" y="614"/>
      <point x="174" y="699"/>
      <point x="190" y="779" type="curve"/>
      <point x="226" y="779" type="line"/>
      <point x="208" y="699"/>
      <point x="189" y="614"/>
    </contour>
  </outline>
</glyph>
<glyph name="gravecomb" format="2">
  <unicode hex="0300"/>
  <anchor x="352" y="494" name="_top"/>
  <anchor x="391" y="686" name="top"/>
  <outline>
    <contour>
      <point x="397" y="586" type="curve"/>
      <point x="427" y="587" type="line"/>
      <point x="391" y="651"/>
      <point x="355" y="715"/>
      <point x="319" y="779" type="curve"/>
      <point x="280" y="778" type="line"/>
      <point x="317" y="713"/>
      <point x="358" y="650"/>
    </contour>
  </outline>
</glyph>
<glyph name="acutecomb" format="2">
  <unicode hex="0301"/>
  <anchor x="352" y="494" name="_top"/>
  <anchor x="389" y="676" name="top"/>
  <outline>
    <contour>
      <point x="315" y="586" type="curve"/>
      <point x="352" y="587" type="line"/>
      <point x="418" y="651"/>
      <point x="481" y="714"/>
      <point x="544" y="779" type="curve"/>
      <point x="495" y="778" type="line"/>
      <point x="435" y="715"/>
      <point x="376" y="651"/>
    </contour>
  </outline>
</glyph>
<glyph name="dblgravecomb" format="2">
  <unicode hex="030F"/>
  <anchor x="352" y="494" name="_top"/>
  <anchor x="402" y="736" name="top"/>
  <outline>
    <contour>
      <point x="296" y="586" type="curve"/>
      <point x="326" y="587" type="line"/>
      <point x="290" y="651"/>
      <point x="254" y="715"/>
      <point x="218" y="779" type="curve"/>
      <point x="179" y="778" type="line"/>
      <point x="216" y="713"/>
      <point x="257" y="650"/>
    </contour>
    <contour>
      <point x="462" y="586" type="curve"/>
      <point x="490" y="587" type="line"/>
      <point x="460" y="652"/>
      <point x="431" y="715"/>
      <point x="402" y="779" type="curve"/>
      <point x="365" y="778" type="line"/>
      <point x="396" y="715"/>
      <point x="429" y="650"/>
    </contour>
  </outline>
</glyph>
<glyph name="horncomb" format="2">
  <unicode hex="031B"/>
  <anchor x="352" y="494" name="_topright"/>
  <outline>
    <contour>
      <point x="266" y="376" type="line"/>
      <point x="352" y="376"/>
      <point x="406" y="416"/>
      <point x="424" y="497" type="curve" smooth="yes"/>
      <point x="427" y="509"/>
      <point x="428" y="567"/>
      <point x="427" y="613" type="curve"/>
      <point x="396" y="611" type="line"/>
      <point x="396" y="578"/>
      <point x="396" y="532"/>
      <point x="395" y="503" type="curve"/>
      <point x="384" y="451"/>
      <point x="355" y="404"/>
      <point x="257" y="404" type="curve"/>
    </contour>
  </outline>
</glyph>
<glyph name="commaaccentcomb" format="2">
  <unicode hex="0326"/>
  <anchor x="248" y="0" name="_bottom"/>
  <anchor x="189" y="-273" name="bottom"/>
  <outline>
    <contour>
      <point x="150" y="-282" type="curve"/>
      <point x="172" y="-281" type="line"/>
      <point x="197" y="-248"/>
      <point x="246" y="-180"/>
      <point x="250" y="-159" type="curve" smooth="yes"/>
      <point x="255" y="-136"/>
      <point x="245" y="-116"/>
      <point x="227" y="-115" type="curve"/>
      <point x="207" y="-116" type="line"/>
      <point x="204" y="-132"/>
      <point x="202" y="-149"/>
      <point x="199" y="-165" type="curve"/>
      <point x="181" y="-211"/>
      <point x="167" y="-245"/>
    </contour>
  </outline>
</glyph>
<glyph name="pi" format="2">
  <advance width="582"/>
  <unicode hex="03C0"/>
  <outline>
    <contour>
      <point x="423" y="0" type="curve"/>
      <point x="458" y="0" type="line"/>
      <point x="449" y="64"/>
      <point x="440" y="126"/>
      <point x="433" y="177" type="curve"/>
      <point x="501" y="494" type="line"/>
      <point x="472" y="494" type="line"/>
      <point x="447" y="381"/>
      <point x="435" y="326"/>
      <point x="405" y="190" type="curve"/>
      <point x="402" y="175"/>
      <point x="414" y="74"/>
    </contour>
    <contour>
      <point x="80" y="0" type="curve"/>
      <point x="115" y="0" type="line"/>
      <point x="131" y="73"/>
      <point x="146" y="141"/>
      <point x="164" y="223" type="curve"/>
      <point x="178" y="289" type="line"/>
      <point x="195" y="357"/>
      <point x="210" y="417"/>
      <point x="229" y="494" type="curve"/>
      <point x="195" y="494" type="line"/>
      <point x="178" y="420"/>
      <point x="163" y="354"/>
      <point x="144" y="271" type="curve"/>
      <point x="134" y="223" type="line"/>
      <point x="114" y="141"/>
      <point x="98" y="74"/>
    </contour>
    <contour>
      <point x="75" y="463" type="line"/>
      <point x="198" y="466" type="line"/>
      <point x="385" y="466" type="line"/>
      <point x="453" y="466"/>
      <point x="526" y="466"/>
      <point x="595" y="463" type="curve"/>
      <point x="602" y="494" type="line"/>
      <point x="82" y="494" type="line"/>
    </contour>
  </outline>
</glyph>
<glyph name="endash" format="2">
  <advance width="570"/>
  <unicode hex="2013"/>
  <outline>
    <contour>
      <point x="77" y="279" type="line"/>
      <point x="135" y="280"/>
      <point x="202" y="281"/>
      <point x="237" y="281" type="curve"/>
      <point x="347" y="281" type="line"/>
      <point x="382" y="281"/>
      <point x="449" y="280"/>
      <point x="507" y="279" type="curve"/>
      <point x="513" y="311" type="line"/>
      <point x="455" y="310"/>
      <point x="388" y="309"/>
      <point x="353" y="309" type="curve"/>
      <point x="243" y="309" type="line"/>
      <point x="208" y="309"/>
      <point x="141" y="310"/>
      <point x="83" y="311" type="curve"/>
    </contour>
  </outline>
</glyph>
<glyph name="emdash" format="2">
  <advance width="780"/>
  <unicode hex="2014"/>
  <outline>
    <contour>
      <point x="77" y="279" type="line"/>
      <point x="163" y="280"/>
      <point x="263" y="281"/>
      <point x="315" y="281" type="curve"/>
      <point x="479" y="281" type="line"/>
      <point x="531" y="281"/>
      <point x="631" y="280"/>
      <point x="717" y="279" type="curve"/>
      <point x="723" y="311" type="line"/>
      <point x="637" y="310"/>
      <point x="537" y="309"/>
      <point x="485" y="309" type="curve"/>
      <point x="321" y="309" type="line"/>
      <point x="269" y="309"/>
      <point x="169" y="310"/>
      <point x="83" y="311" type="curve"/>
    </contour>
  </outline>
</glyph>
<glyph name="dagger" format="2">
  <advance width="560"/>
  <unicode hex="2020"/>
  <outline>
    <contour>
      <point x="209" y="0" type="curve"/>
      <point x="245" y="0" type="line"/>
      <point x="276" y="151"/>
      <point x="302" y="276"/>
      <point x="334" y="431" type="curve"/>
      <point x="338" y="447" type="line"/>
      <point x="357" y="532"/>
      <point x="375" y="612"/>
      <point x="391" y="684" type="curve"/>
      <point x="355" y="684" type="line"/>
      <point x="341" y="613"/>
      <point x="325" y="532"/>
      <point x="308" y="447" type="curve"/>
      <point x="304" y="431" type="line"/>
      <point x="270" y="276"/>
      <point x="242" y="150"/>
    </contour>
    <contour>
      <point x="98" y="428" type="line"/>
      <point x="157" y="429"/>
      <point x="224" y="430"/>
      <point x="259" y="430" type="curve"/>
      <point x="379" y="430" type="line"/>
      <point x="414" y="430"/>
      <point x="481" y="429"/>
      <point x="538" y="428" type="curve"/>
      <point x="546" y="462" type="line"/>
      <point x="487" y="461"/>
      <point x="420" y="460"/>
      <point x="385" y="460" type="curve"/>
      <point x="265" y="460" type="line"/>
      <point x="230" y="460"/>
      <point x="163" y="461"/>
      <point x="106" y="462" type="curve"/>
    </contour>
  </outline>
</glyph>
<glyph name="bullet" format="2">
  <advance width="406"/>
  <unicode hex="2022"/>
  <outline>
    <contour>
      <point x="204" y="191" type="curve" smooth="yes"/>
      <point x="266" y="191"/>
      <point x="300" y="216"/>
      <point x="316" y="291" type="curve" smooth="yes"/>
      <point x="330" y="356"/>
      <point x="286" y="396"/>
      <point x="220" y="396" type="curve" smooth="yes"/>
      <point x="162" y="396"/>
      <point x="126" y="373"/>
      <point x="114" y="314" type="curve" smooth="yes"/>
      <point x="99" y="241"/>
      <point x="137" y="191"/>
    </contour>
  </outline>
</glyph>
<glyph name="fraction" format="2">
  <advance width="273"/>
  <unicode hex="2044"/>
  <outline>
    <contour>
      <point x="-136" y="0" type="curve"/>
      <point x="-93" y="0" type="line"/>
      <point x="-37" y="74"/>
      <point x="11" y="138"/>
      <point x="80" y="229" type="curve"/>
      <point x="272" y="479" type="line"/>
      <point x="346" y="574"/>
      <point x="395" y="636"/>
      <point x="455" y="713" type="curve"/>
      <point x="412" y="713" type="line"/>
      <point x="355" y="638"/>
      <point x="307" y="574"/>
      <point x="235" y="479" type="curve"/>
      <point x="43" y="229" type="line"/>
      <point x="-28" y="138"/>
      <point x="-78" y="74"/>
    </contour>
  </outline>
</glyph>
<glyph name="franc" format="2">
  <advance width="568"/>
  <unicode hex="20A3"/>
  <outline>
    <contour>
      <point x="72" y="0" type="curve"/>
      <point x="108" y="0" type="line"/>
      <point x="123" y="75"/>
      <point x="138" y="148"/>
      <point x="154" y="227" type="curve"/>
      <point x="202" y="454" type="line"/>
      <point x="221" y="540"/>
      <point x="236" y="607"/>
      <point x="253" y="682" type="curve"/>
      <point x="251" y="684" type="line"/>
      <point x="218" y="684" type="line"/>
      <point x="203" y="608"/>
      <point x="188" y="537"/>
      <point x="171" y="453" type="curve"/>
      <point x="123" y="227" type="line"/>
      <point x="105" y="146"/>
      <point x="89" y="76"/>
    </contour>
    <contour>
      <point x="239" y="654" type="line"/>
      <point x="359" y="654" type="line"/>
      <point x="462" y="653"/>
      <point x="535" y="652"/>
      <point x="602" y="651" type="curve"/>
      <point x="609" y="684" type="line"/>
      <point x="245" y="684" type="line"/>
    </contour>
    <contour>
      <point x="170" y="333" type="line"/>
      <point x="297" y="333" type="line"/>
      <point x="377" y="332"/>
      <point x="447" y="332"/>
      <point x="512" y="331" type="curve"/>
      <point x="519" y="365" type="line"/>
      <point x="454" y="364"/>
      <point x="384" y="364"/>
      <point x="305" y="363" type="curve"/>
      <point x="177" y="363" type="line"/>
    </contour>
    <contour>
      <point x="19" y="156" type="line"/>
      <point x="77" y="157"/>
      <point x="144" y="158"/>
      <point x="179" y="158" type="curve"/>
      <point x="209" y="158" type="line"/>
      <point x="244" y="158"/>
      <point x="311" y="157"/>
      <point x="369" y="156" type="curve"/>
      <point x="375" y="188" type="line"/>
      <point x="317" y="187"/>
      <point x="250" y="186"/>
      <point x="215" y="186" type="curve"/>
      <point x="185" y="186" type="line"/>
      <point x="150" y="186"/>
      <point x="83" y="187"/>
      <point x="25" y="188" type="curve"/>
    </contour>
  </outline>
</glyph>
<glyph name="lira" format="2">
  <advance width="579"/>
  <unicode hex="20A4"/>
  <outline>
    <contour>
      <point x="23" y="0" type="line"/>
      <point x="492" y="0" type="line"/>
      <point x="499" y="33" type="line"/>
      <point x="419" y="32"/>
      <point x="288" y="31"/>
      <point x="198" y="30" type="curve"/>
      <point x="50" y="30" type="line"/>
      <point x="56" y="11" type="line"/>
      <point x="149" y="138"/>
      <point x="171" y="175"/>
      <point x="179" y="214" type="curve" smooth="yes"/>
      <point x="235" y="474" type="line" smooth="yes"/>
      <point x="263" y="604"/>
      <point x="322" y="663"/>
      <point x="429" y="664" type="curve"/>
      <point x="448" y="664"/>
      <point x="517" y="643"/>
      <point x="583" y="616" type="curve"/>
      <point x="595" y="650" type="line"/>
      <point x="553" y="665"/>
      <point x="464" y="696"/>
      <point x="430" y="696" type="curve" smooth="yes"/>
      <point x="320" y="696"/>
      <point x="235" y="629"/>
      <point x="204" y="481" type="curve" smooth="yes"/>
      <point x="186" y="400"/>
      <point x="165" y="296"/>
      <point x="148" y="215" type="curve"/>
      <point x="142" y="186"/>
      <point x="119" y="146"/>
      <point x="29" y="27" type="curve"/>
    </contour>
    <contour>
      <point x="94" y="387" type="line"/>
      <point x="152" y="388"/>
      <point x="220" y="389"/>
      <point x="255" y="389" type="curve"/>
      <point x="285" y="389" type="line"/>
      <point x="320" y="389"/>
      <point x="386" y="388"/>
      <point x="444" y="387" type="curve"/>
      <point x="451" y="419" type="line"/>
      <point x="393" y="418"/>
      <point x="326" y="417"/>
      <point x="291" y="417" type="curve"/>
      <point x="261" y="417" type="line"/>
      <point x="226" y="417"/>
      <point x="159" y="418"/>
      <point x="101" y="419" type="curve"/>
    </contour>
    <contour>
      <point x="67" y="257" type="line"/>
      <point x="125" y="258"/>
      <point x="193" y="259"/>
      <point x="228" y="259" type="curve"/>
      <point x="258" y="259" type="line"/>
      <point x="293" y="259"/>
      <point x="359" y="258"/>
      <point x="417" y="257" type="curve"/>
      <point x="424" y="289" type="line"/>
      <point x="366" y="288"/>
      <point x="299" y="287"/>
      <point x="264" y="287" type="curve"/>
      <point x="234" y="287" type="line"/>
      <point x="199" y="287"/>
      <point x="132" y="288"/>
      <point x="74" y="289" type="curve"/>
    </contour>
  </outline>
</glyph>
<glyph name="euro" format="2">
  <advance width="700"/>
  <unicode hex="20AC"/>
  <outline>
    <contour>
      <point x="413" y="-9" type="curve" smooth="yes"/>
      <point x="457" y="-9"/>
      <point x="546" y="15"/>
      <point x="602" y="33" type="curve"/>
      <point x="604" y="74" type="line"/>
      <point x="535" y="44"/>
      <point x="443" y="23"/>
      <point x="412" y="23" type="curve"/>
      <point x="206" y="25"/>
      <point x="138" y="196"/>
      <point x="176" y="377" type="curve" smooth="yes"/>
      <point x="217" y="571"/>
      <point x="337" y="662"/>
      <point x="514" y="664" type="curve"/>
      <point x="541" y="664"/>
      <point x="633" y="638"/>
      <point x="722" y="606" type="curve"/>
      <point x="733" y="639" type="line"/>
      <point x="678" y="657"/>
      <point x="561" y="696"/>
      <point x="516" y="696" type="curve" smooth="yes"/>
      <point x="326" y="696"/>
      <point x="188" y="590"/>
      <point x="145" y="383" type="curve" smooth="yes"/>
      <point x="103" y="183"/>
      <point x="189" y="-9"/>
    </contour>
    <contour>
      <point x="33" y="257" type="line"/>
      <point x="92" y="259"/>
      <point x="147" y="259"/>
      <point x="194" y="259" type="curve"/>
      <point x="344" y="259" type="line"/>
      <point x="391" y="259"/>
      <point x="446" y="259"/>
      <point x="503" y="257" type="curve"/>
      <point x="510" y="289" type="line"/>
      <point x="452" y="287"/>
      <point x="397" y="287"/>
      <point x="350" y="287" type="curve"/>
      <point x="200" y="287" type="line"/>
      <point x="153" y="287"/>
      <point x="98" y="287"/>
      <point x="40" y="289" type="curve"/>
    </contour>
    <contour>
      <point x="61" y="387" type="line"/>
      <point x="119" y="389"/>
      <point x="174" y="389"/>
      <point x="221" y="389" type="curve"/>
      <point x="401" y="389" type="line"/>
      <point x="448" y="389"/>
      <point x="503" y="389"/>
      <point x="561" y="387" type="curve"/>
      <point x="568" y="419" type="line"/>
      <point x="509" y="417"/>
      <point x="454" y="417"/>
      <point x="407" y="417" type="curve"/>
      <point x="227" y="417" type="line"/>
      <point x="180" y="417"/>
      <point x="125" y="417"/>
      <point x="68" y="419" type="curve"/>
    </contour>
  </outline>
</glyph>
<glyph name="guarani" format="2">
  <advance width="706"/>
  <unicode hex="20B2"/>
  <outline>
    <contour>
      <point x="376" y="-9" type="curve" smooth="yes"/>
      <point x="423" y="-9"/>
      <point x="522" y="15"/>
      <point x="582" y="35" type="curve"/>
      <point x="579" y="72" type="line"/>
      <point x="507" y="43"/>
      <point x="409" y="23"/>
      <point x="377" y="23" type="curve"/>
      <point x="149" y="25"/>
      <point x="79" y="196"/>
      <point x="117" y="377" type="curve" smooth="yes"/>
      <point x="159" y="575"/>
      <point x="286" y="662"/>
      <point x="459" y="664" type="curve"/>
      <point x="488" y="664"/>
      <point x="586" y="633"/>
      <point x="681" y="595" type="curve"/>
      <point x="693" y="628" type="line"/>
      <point x="633" y="650"/>
      <point x="507" y="696"/>
      <point x="458" y="696" type="curve" smooth="yes"/>
      <point x="267" y="696"/>
      <point x="129" y="586"/>
      <point x="86" y="383" type="curve" smooth="yes"/>
      <point x="44" y="183"/>
      <point x="134" y="-9"/>
    </contour>
    <contour>
      <point x="274" y="-137" type="curve"/>
      <point x="308" y="-137" type="line"/>
      <point x="337" y="1"/>
      <point x="368" y="154"/>
      <point x="376" y="192" type="curve"/>
      <point x="436" y="474" type="line"/>
      <point x="444" y="512"/>
      <point x="478" y="664"/>
      <point x="508" y="803" type="curve"/>
      <point x="474" y="803" type="line"/>
      <point x="445" y="664"/>
      <point x="414" y="512"/>
      <point x="406" y="474" type="curve"/>
      <point x="346" y="192" type="line"/>
      <point x="338" y="154"/>
      <point x="304" y="1"/>
    </contour>
    <contour>
      <point x="547" y="35" type="curve"/>
      <point x="582" y="35" type="line"/>
      <point x="595" y="99"/>
      <point x="603" y="138"/>
      <point x="614" y="192" type="curve"/>
      <point x="627" y="247"/>
      <point x="636" y="285"/>
      <point x="648" y="335" type="curve"/>
      <point x="612" y="335" type="line"/>
      <point x="602" y="286"/>
      <point x="594" y="246"/>
      <point x="583" y="192" type="curve"/>
      <point x="570" y="135"/>
      <point x="562" y="100"/>
    </contour>
  </outline>
</glyph>
<glyph name="literSign" format="2">
  <advance width="542"/>
  <unicode hex="2113"/>
  <outline>
    <contour>
      <point x="316" y="-9" type="curve" smooth="yes"/>
      <point x="341" y="-9"/>
      <point x="399" y="10"/>
      <point x="436" y="26" type="curve"/>
      <point x="436" y="61" type="line"/>
      <point x="390" y="38"/>
      <point x="333" y="21"/>
      <point x="315" y="21" type="curve"/>
      <point x="194" y="22"/>
      <point x="173" y="115"/>
      <point x="206" y="269" type="curve" smooth="yes"/>
      <point x="241" y="436" type="line" smooth="yes"/>
      <point x="280" y="622"/>
      <point x="341" y="665"/>
      <point x="406" y="666" type="curve" smooth="yes"/>
      <point x="464" y="667"/>
      <point x="501" y="615"/>
      <point x="479" y="511" type="curve" smooth="yes"/>
      <point x="437" y="314"/>
      <point x="316" y="224"/>
      <point x="180" y="224" type="curve" smooth="yes"/>
      <point x="155" y="224"/>
      <point x="90" y="242"/>
      <point x="43" y="261" type="curve"/>
      <point x="33" y="230" type="line"/>
      <point x="75" y="215"/>
      <point x="144" y="195"/>
      <point x="179" y="195" type="curve" smooth="yes"/>
      <point x="363" y="195"/>
      <point x="472" y="338"/>
      <point x="507" y="506" type="curve" smooth="yes"/>
      <point x="533" y="631"/>
      <point x="482" y="696"/>
      <point x="408" y="696" type="curve" smooth="yes"/>
      <point x="313" y="696"/>
      <point x="251" y="620"/>
      <point x="212" y="441" type="curve" smooth="yes"/>
      <point x="177" y="274" type="line" smooth="yes"/>
      <point x="139" y="94"/>
      <point x="177" y="-9"/>
    </contour>
  </outline>
</glyph>
<glyph name="trademark" format="2">
  <advance width="852"/>
  <unicode hex="2122"/>
  <outline>
    <contour>
      <point x="391" y="310" type="curve"/>
      <point x="428" y="310" type="line"/>
      <point x="449" y="376"/>
      <point x="473" y="451"/>
      <point x="494" y="517" type="curve"/>
      <point x="538" y="649" type="line"/>
      <point x="541" y="649" type="line"/>
      <point x="570" y="505" type="line"/>
      <point x="581" y="446"/>
      <point x="594" y="375"/>
      <point x="606" y="310" type="curve"/>
      <point x="634" y="310" type="line"/>
      <point x="674" y="376"/>
      <point x="714" y="441"/>
      <point x="754" y="507" type="curve"/>
      <point x="843" y="649" type="line"/>
      <point x="846" y="649" type="line"/>
      <point x="834" y="517" type="line"/>
      <point x="827" y="451"/>
      <point x="819" y="376"/>
      <point x="812" y="310" type="curve"/>
      <point x="848" y="310" type="line"/>
      <point x="851" y="354"/>
      <point x="854" y="401"/>
      <point x="857" y="443" type="curve"/>
      <point x="869" y="575" type="line"/>
      <point x="874" y="618"/>
      <point x="879" y="665"/>
      <point x="884" y="709" type="curve"/>
      <point x="845" y="709" type="line"/>
      <point x="807" y="646"/>
      <point x="773" y="590"/>
      <point x="740" y="536" type="curve"/>
      <point x="631" y="363" type="line"/>
      <point x="628" y="363" type="line"/>
      <point x="593" y="538" type="line"/>
      <point x="583" y="592"/>
      <point x="572" y="650"/>
      <point x="561" y="709" type="curve"/>
      <point x="524" y="709" type="line"/>
      <point x="509" y="661"/>
      <point x="497" y="622"/>
      <point x="482" y="574" type="curve"/>
      <point x="439" y="445" type="line"/>
      <point x="422" y="397"/>
      <point x="408" y="358"/>
    </contour>
    <contour>
      <point x="175" y="310" type="curve"/>
      <point x="212" y="310" type="line"/>
      <point x="221" y="357"/>
      <point x="228" y="395"/>
      <point x="237" y="442" type="curve"/>
      <point x="265" y="573" type="line"/>
      <point x="276" y="620"/>
      <point x="285" y="658"/>
      <point x="296" y="705" type="curve"/>
      <point x="294" y="709" type="line"/>
      <point x="263" y="709" type="line"/>
      <point x="259" y="705" type="line"/>
      <point x="250" y="658"/>
      <point x="243" y="620"/>
      <point x="234" y="573" type="curve"/>
      <point x="206" y="442" type="line"/>
      <point x="195" y="395"/>
      <point x="186" y="357"/>
    </contour>
    <contour>
      <point x="111" y="677" type="line"/>
      <point x="144" y="678"/>
      <point x="178" y="679"/>
      <point x="225" y="680" type="curve"/>
      <point x="262" y="680" type="line"/>
      <point x="268" y="709" type="line"/>
      <point x="118" y="709" type="line"/>
    </contour>
    <contour>
      <point x="283" y="680" type="line"/>
      <point x="319" y="680" type="line"/>
      <point x="366" y="679"/>
      <point x="400" y="678"/>
      <point x="431" y="677" type="curve"/>
      <point x="438" y="709" type="line"/>
      <point x="289" y="709" type="line"/>
    </contour>
  </outline>
</glyph>
<glyph name="Ohm" format="2">
  <advance width="795"/>
  <unicode hex="2126"/>
  <outline>
    <contour>
      <point x="-13" y="0" type="line"/>
      <point x="266" y="0" type="line"/>
      <point x="279" y="65"/>
      <point x="291" y="126"/>
      <point x="305" y="195" type="curve"/>
      <point x="179" y="284"/>
      <point x="139" y="399"/>
      <point x="156" y="479" type="curve" smooth="yes"/>
      <point x="183" y="608"/>
      <point x="266" y="688"/>
      <point x="458" y="692" type="curve"/>
      <point x="656" y="688"/>
      <point x="755" y="568"/>
      <point x="724" y="420" type="curve" smooth="yes"/>
      <point x="706" y="335"/>
      <point x="626" y="259"/>
      <point x="466" y="195" type="curve"/>
      <point x="450" y="123"/>
      <point x="438" y="68"/>
      <point x="423" y="0" type="curve"/>
      <point x="702" y="0" type="line"/>
      <point x="709" y="35" type="line"/>
      <point x="657" y="34"/>
      <point x="576" y="32"/>
      <point x="524" y="31" type="curve"/>
      <point x="448" y="31" type="line"/>
      <point x="463" y="16" type="line"/>
      <point x="478" y="90"/>
      <point x="486" y="131"/>
      <point x="499" y="195" type="curve"/>
      <point x="466" y="159" type="line"/>
      <point x="627" y="228"/>
      <point x="732" y="302"/>
      <point x="756" y="415" type="curve" smooth="yes"/>
      <point x="790" y="577"/>
      <point x="673" y="725"/>
      <point x="460" y="725" type="curve" smooth="yes"/>
      <point x="267" y="725"/>
      <point x="156" y="635"/>
      <point x="124" y="484" type="curve" smooth="yes"/>
      <point x="103" y="386"/>
      <point x="158" y="258"/>
      <point x="293" y="163" type="curve"/>
      <point x="273" y="195" type="line"/>
      <point x="259" y="133"/>
      <point x="250" y="92"/>
      <point x="233" y="16" type="curve"/>
      <point x="255" y="31" type="line"/>
      <point x="179" y="31" type="line"/>
      <point x="127" y="32"/>
      <point x="46" y="34"/>
      <point x="-6" y="35" type="curve"/>
    </contour>
  </outline>
</glyph>
<glyph name="emptyset" format="2">
  <advance width="646"/>
  <unicode hex="2205"/>
  <outline>
    <contour>
      <point x="99" y="3" type="line"/>
      <point x="154" y="67"/>
      <point x="202" y="124"/>
      <point x="262" y="194" type="curve"/>
      <point x="423" y="379" type="line"/>
      <point x="484" y="448"/>
      <point x="539" y="510"/>
      <point x="594" y="572" type="curve"/>
      <point x="566" y="591" type="line"/>
      <point x="511" y="527"/>
      <point x="464" y="472"/>
      <point x="402" y="399" type="curve"/>
      <point x="239" y="211" type="line"/>
      <point x="178" y="143"/>
      <point x="130" y="89"/>
      <point x="71" y="23" type="curve"/>
    </contour>
    <contour>
      <point x="317" y="36" type="curve" smooth="yes"/>
      <point x="455" y="36"/>
      <point x="555" y="111"/>
      <point x="585" y="266" type="curve" smooth="yes"/>
      <point x="616" y="425"/>
      <point x="508" y="558"/>
      <point x="355" y="558" type="curve" smooth="yes"/>
      <point x="222" y="558"/>
      <point x="112" y="484"/>
      <point x="82" y="329" type="curve" smooth="yes"/>
      <point x="51" y="169"/>
      <point x="154" y="36"/>
    </contour>
    <contour>
      <point x="317" y="67" type="curve"/>
      <point x="173" y="69"/>
      <point x="84" y="179"/>
      <point x="113" y="326" type="curve" smooth="yes"/>
      <point x="140" y="465"/>
      <point x="236" y="525"/>
      <point x="354" y="527" type="curve"/>
      <point x="492" y="525"/>
      <point x="583" y="411"/>
      <point x="555" y="271" type="curve" smooth="yes"/>
      <point x="527" y="129"/>
      <point x="440" y="69"/>
    </contour>
  </outline>
</glyph>
<glyph name="product" format="2">
  <advance width="778"/>
  <unicode hex="220F"/>
  <outline>
    <contour>
      <point x="491" y="-192" type="curve"/>
      <point x="528" y="-192" type="line"/>
      <point x="548" y="-93"/>
      <point x="566" y="-1"/>
      <point x="588" y="105" type="curve"/>
      <point x="653" y="412" type="line"/>
      <point x="677" y="520"/>
      <point x="697" y="610"/>
      <point x="719" y="709" type="curve"/>
      <point x="720" y="713" type="line"/>
      <point x="682" y="713" type="line"/>
      <point x="681" y="709" type="line"/>
      <point x="661" y="610"/>
      <point x="643" y="521"/>
      <point x="621" y="412" type="curve"/>
      <point x="556" y="105" type="line"/>
      <point x="532" y="-5"/>
      <point x="513" y="-91"/>
    </contour>
    <contour>
      <point x="66" y="-192" type="curve"/>
      <point x="103" y="-192" type="line"/>
      <point x="123" y="-93"/>
      <point x="141" y="-1"/>
      <point x="163" y="105" type="curve"/>
      <point x="228" y="412" type="line"/>
      <point x="252" y="520"/>
      <point x="272" y="610"/>
      <point x="294" y="709" type="curve"/>
      <point x="295" y="713" type="line"/>
      <point x="257" y="713" type="line"/>
      <point x="256" y="709" type="line"/>
      <point x="236" y="610"/>
      <point x="218" y="521"/>
      <point x="196" y="412" type="curve"/>
      <point x="131" y="105" type="line"/>
      <point x="107" y="-5"/>
      <point x="88" y="-91"/>
    </contour>
    <contour>
      <point x="127" y="678" type="line"/>
      <point x="176" y="679"/>
      <point x="274" y="681"/>
      <point x="333" y="682" type="curve"/>
      <point x="629" y="682" type="line"/>
      <point x="687" y="681"/>
      <point x="786" y="679"/>
      <point x="835" y="678" type="curve"/>
      <point x="842" y="713" type="line"/>
      <point x="134" y="713" type="line"/>
    </contour>
  </outline>
</glyph>
<glyph name="summation" format="2">
  <advance width="614"/>
  <unicode hex="2211"/>
  <outline>
    <contour>
      <point x="-39" y="-192" type="line"/>
      <point x="486" y="-192" type="line"/>
      <point x="493" y="-156" type="line"/>
      <point x="405" y="-157"/>
      <point x="261" y="-159"/>
      <point x="162" y="-161" type="curve"/>
      <point x="-22" y="-161" type="line"/>
      <point x="-9" y="-186" type="line"/>
      <point x="148" y="-18" type="line"/>
      <point x="240" y="79"/>
      <point x="337" y="182"/>
      <point x="429" y="279" type="curve"/>
      <point x="377" y="365"/>
      <point x="319" y="461"/>
      <point x="267" y="547" type="curve"/>
      <point x="175" y="700" type="line"/>
      <point x="152" y="682" type="line"/>
      <point x="355" y="682" type="line"/>
      <point x="447" y="681"/>
      <point x="550" y="679"/>
      <point x="662" y="678" type="curve"/>
      <point x="669" y="713" type="line"/>
      <point x="154" y="713" type="line"/>
      <point x="147" y="682" type="line"/>
      <point x="196" y="601"/>
      <point x="248" y="515"/>
      <point x="297" y="434" type="curve"/>
      <point x="395" y="269" type="line"/>
      <point x="391" y="288" type="line"/>
      <point x="245" y="133" type="line"/>
      <point x="162" y="45"/>
      <point x="45" y="-80"/>
      <point x="-33" y="-163" type="curve"/>
    </contour>
  </outline>
</glyph>
<glyph name="H.bar" format="2">
  <advance width="750"/>
  <anchor x="323" y="0" name="bottom"/>
  <anchor x="398" y="357" name="center"/>
  <anchor x="473" y="713" name="top"/>
  <anchor x="134" y="713" name="topleft"/>
  <outline>
    <contour>
      <point x="553" y="0" type="curve"/>
      <point x="590" y="0" type="line"/>
      <point x="606" y="81"/>
      <point x="619" y="148"/>
      <point x="637" y="238" type="curve"/>
      <point x="687" y="473" type="line"/>
      <point x="707" y="563"/>
      <point x="722" y="632"/>
      <point x="740" y="713" type="curve"/>
      <point x="703" y="713" type="line"/>
      <point x="687" y="634"/>
      <point x="673" y="562"/>
      <point x="655" y="473" type="curve"/>
      <point x="605" y="238" type="line"/>
      <point x="586" y="151"/>
      <point x="571" y="83"/>
    </contour>
    <contour>
      <point x="56" y="0" type="curve"/>
      <point x="93" y="0" type="line"/>
      <point x="109" y="81"/>
      <point x="122" y="148"/>
      <point x="140" y="238" type="curve"/>
      <point x="190" y="473" type="line"/>
      <point x="210" y="563"/>
      <point x="225" y="632"/>
      <point x="243" y="713" type="curve"/>
      <point x="206" y="713" type="line"/>
      <point x="190" y="634"/>
      <point x="176" y="562"/>
      <point x="158" y="473" type="curve"/>
      <point x="108" y="238" type="line"/>
      <point x="89" y="151"/>
      <point x="74" y="83"/>
    </contour>
    <contour>
      <point x="142" y="347" type="line"/>
      <point x="652" y="347" type="line"/>
      <point x="659" y="378" type="line"/>
      <point x="149" y="378" type="line"/>
    </contour>
  </outline>
</glyph>
<glyph name="_Q_tail" format="2">
  <advance width="768"/>
  <anchor x="332" y="0" name="_bottom"/>
  <outline>
    <contour>
      <point x="563" y="-165" type="curve"/>
      <point x="601" y="-147" type="line"/>
      <point x="556" y="-108"/>
      <point x="521" y="-78"/>
      <point x="486" y="-48" type="curve"/>
      <point x="407" y="24" type="line"/>
      <point x="386" y="4" type="line"/>
      <point x="457" y="-62" type="line"/>
      <point x="493" y="-97"/>
      <point x="529" y="-132"/>
    </contour>
  </outline>
</glyph>
<glyph name="_strokeshortcomb.Eth" format="2">
  <advance width="739"/>
  <anchor x="393.381" y="357" name="_center"/>
  <outline>
    <contour>
      <point x="7" y="329" type="line"/>
      <point x="68" y="330"/>
      <point x="115" y="330"/>
      <point x="175" y="331" type="curve"/>
      <point x="221" y="331" type="line"/>
      <point x="279" y="330"/>
      <point x="326" y="330"/>
      <point x="387" y="329" type="curve"/>
      <point x="394" y="363" type="line"/>
      <point x="333" y="362"/>
      <point x="286" y="362"/>
      <point x="227" y="361" type="curve"/>
      <point x="181" y="361" type="line"/>
      <point x="122" y="362"/>
      <point x="75" y="362"/>
      <point x="14" y="363" type="curve"/>
    </contour>
  </outline>
</glyph>
<glyph name="circumflexcomb.case" format="2">
  <anchor x="352" y="494" name="_top"/>
  <anchor x="399" y="725" name="top"/>
  <outline>
    <contour>
      <point x="503" y="575" type="curve"/>
      <point x="533" y="576" type="line"/>
      <point x="498" y="633"/>
      <point x="461" y="693"/>
      <point x="426" y="750" type="curve"/>
      <point x="387" y="750" type="line"/>
      <point x="424" y="690"/>
      <point x="464" y="633"/>
    </contour>
    <contour>
      <point x="203" y="577" type="curve"/>
      <point x="240" y="577" type="line"/>
      <point x="305" y="635"/>
      <point x="366" y="690"/>
      <point x="426" y="750" type="curve"/>
      <point x="381" y="750" type="line"/>
      <point x="322" y="692"/>
      <point x="263" y="636"/>
    </contour>
  </outline>
</glyph>
<glyph name="circumflexcomb.narrow" format="2">
  <anchor x="352" y="494" name="_top"/>
  <anchor x="404" y="745" name="top"/>
  <outline>
    <contour>
      <point x="485" y="585" type="curve"/>
      <point x="510" y="586" type="line"/>
      <point x="480" y="650"/>
      <point x="451" y="713"/>
      <point x="421" y="777" type="curve"/>
      <point x="388" y="777" type="line"/>
      <point x="419" y="713"/>
      <point x="452" y="649"/>
    </contour>
    <contour>
      <point x="230" y="587" type="curve"/>
      <point x="261" y="587" type="line"/>
      <point x="317" y="651"/>
      <point x="369" y="712"/>
      <point x="421" y="777" type="curve"/>
      <point x="383" y="777" type="line"/>
      <point x="332" y="714"/>
      <point x="282" y="652"/>
    </contour>
  </outline>
</glyph>
<glyph name="circumflexcomb_gravecomb.case" format="2">
  <anchor x="352" y="494" name="_top"/>
  <outline>
    <contour>
      <point x="566" y="711" type="curve"/>
      <point x="596" y="712" type="line"/>
      <point x="560" y="770"/>
      <point x="524" y="828"/>
      <point x="488" y="886" type="curve"/>
      <point x="449" y="886" type="line"/>
      <point x="486" y="826"/>
      <point x="527" y="769"/>
    </contour>
    <contour>
      <point x="203" y="577" type="curve"/>
      <point x="240" y="577" type="line"/>
      <point x="305" y="635"/>
      <point x="366" y="690"/>
      <point x="426" y="750" type="curve"/>
      <point x="381" y="750" type="line"/>
      <point x="322" y="692"/>
      <point x="263" y="636"/>
    </contour>
    <contour>
      <point x="503" y="575" type="curve"/>
      <point x="533" y="576" type="line"/>
      <point x="498" y="633"/>
      <point x="461" y="693"/>
      <point x="426" y="750" type="curve"/>
      <point x="387" y="750" type="line"/>
      <point x="424" y="690"/>
      <point x="464" y="633"/>
    </contour>
  </outline>
</glyph>
<glyph name="circumflexcomb_gravecomb" format="2">
  <anchor x="350" y="494" name="_top"/>
  <outline>
    <contour>
      <point x="573" y="740" type="curve"/>
      <point x="603" y="741" type="line"/>
      <point x="567" y="805"/>
      <point x="531" y="869"/>
      <point x="495" y="933" type="curve"/>
      <point x="456" y="932" type="line"/>
      <point x="493" y="867"/>
      <point x="534" y="804"/>
    </contour>
    <contour>
      <point x="205" y="587" type="curve"/>
      <point x="242" y="587" type="line"/>
      <point x="308" y="651"/>
      <point x="369" y="712"/>
      <point x="430" y="777" type="curve"/>
      <point x="385" y="777" type="line"/>
      <point x="325" y="713"/>
      <point x="266" y="652"/>
    </contour>
    <contour>
      <point x="505" y="585" type="curve"/>
      <point x="535" y="586" type="line"/>
      <point x="500" y="649"/>
      <point x="465" y="714"/>
      <point x="430" y="777" type="curve"/>
      <point x="391" y="777" type="line"/>
      <point x="427" y="712"/>
      <point x="467" y="649"/>
    </contour>
  </outline>
</glyph>
<glyph name="circumflexcomb_hookabovecomb.case" format="2">
  <anchor x="352" y="494" name="_top"/>
  <outline>
    <contour>
      <point x="203" y="577" type="curve"/>
      <point x="240" y="577" type="line"/>
      <point x="305" y="635"/>
      <point x="366" y="690"/>
      <point x="426" y="750" type="curve"/>
      <point x="381" y="750" type="line"/>
      <point x="322" y="692"/>
      <point x="263" y="636"/>
    </contour>
    <contour>
      <point x="503" y="575" type="curve"/>
      <point x="533" y="576" type="line"/>
      <point x="498" y="633"/>
      <point x="461" y="693"/>
      <point x="426" y="750" type="curve"/>
      <point x="387" y="750" type="line"/>
      <point x="424" y="690"/>
      <point x="464" y="633"/>
    </contour>
    <contour>
      <point x="519" y="704" type="line"/>
      <point x="549" y="704" type="line"/>
      <point x="557" y="739" type="line"/>
      <point x="601" y="744"/>
      <point x="649" y="766"/>
      <point x="661" y="819" type="curve" smooth="yes"/>
      <point x="672" y="869"/>
      <point x="636" y="904"/>
      <point x="585" y="904" type="curve" smooth="yes"/>
      <point x="567" y="904"/>
      <point x="516" y="889"/>
      <point x="490" y="881" type="curve"/>
      <point x="485" y="847" type="line"/>
      <point x="529" y="861"/>
      <point x="572" y="873"/>
      <point x="582" y="873" type="curve"/>
      <point x="618" y="872"/>
      <point x="639" y="856"/>
      <point x="632" y="823" type="curve" smooth="yes"/>
      <point x="625" y="789"/>
      <point x="589" y="764"/>
      <point x="530" y="757" type="curve"/>
    </contour>
  </outline>
</glyph>
<glyph name="dieresiscomb.case" format="2">
  <anchor x="351" y="494" name="_top"/>
  <anchor x="386" y="665" name="top"/>
  <outline>
    <contour>
      <point x="475" y="618" type="curve" smooth="yes"/>
      <point x="499" y="618"/>
      <point x="513" y="630"/>
      <point x="519" y="661" type="curve" smooth="yes"/>
      <point x="524" y="688"/>
      <point x="514" y="701"/>
      <point x="492" y="701" type="curve" smooth="yes"/>
      <point x="469" y="701"/>
      <point x="456" y="695"/>
      <point x="450" y="671" type="curve" smooth="yes"/>
      <point x="441" y="637"/>
      <point x="451" y="618"/>
    </contour>
    <contour>
      <point x="275" y="618" type="curve" smooth="yes"/>
      <point x="299" y="618"/>
      <point x="313" y="630"/>
      <point x="319" y="661" type="curve" smooth="yes"/>
      <point x="324" y="688"/>
      <point x="314" y="701"/>
      <point x="292" y="701" type="curve" smooth="yes"/>
      <point x="269" y="701"/>
      <point x="256" y="695"/>
      <point x="250" y="671" type="curve" smooth="yes"/>
      <point x="241" y="637"/>
      <point x="251" y="618"/>
    </contour>
  </outline>
</glyph>
<glyph name="dollar.BRACKET.140" format="2">
  <advance width="552"/>
  <outline>
    <contour>
      <point x="256" y="-9" type="curve" smooth="yes"/>
      <point x="394" y="-9"/>
      <point x="465" y="53"/>
      <point x="486" y="154" type="curve" smooth="yes"/>
      <point x="504" y="240"/>
      <point x="466" y="302"/>
      <point x="315" y="367" type="curve" smooth="yes"/>
      <point x="183" y="424"/>
      <point x="139" y="462"/>
      <point x="157" y="546" type="curve" smooth="yes"/>
      <point x="177" y="642"/>
      <point x="268" y="664"/>
      <point x="351" y="664" type="curve"/>
      <point x="373" y="664"/>
      <point x="455" y="636"/>
      <point x="530" y="604" type="curve"/>
      <point x="544" y="636" type="line"/>
      <point x="493" y="655"/>
      <point x="390" y="696"/>
      <point x="351" y="696" type="curve" smooth="yes"/>
      <point x="222" y="696"/>
      <point x="146" y="642"/>
      <point x="127" y="552" type="curve" smooth="yes"/>
      <point x="105" y="450"/>
      <point x="162" y="400"/>
      <point x="297" y="341" type="curve" smooth="yes"/>
      <point x="412" y="291"/>
      <point x="474" y="247"/>
      <point x="456" y="160" type="curve" smooth="yes"/>
      <point x="432" y="45"/>
      <point x="340" y="23"/>
      <point x="256" y="23" type="curve"/>
      <point x="208" y="23"/>
      <point x="133" y="53"/>
      <point x="46" y="93" type="curve"/>
      <point x="33" y="60" type="line"/>
      <point x="114" y="25"/>
      <point x="206" y="-9"/>
    </contour>
    <contour>
      <point x="182" y="-137" type="curve"/>
      <point x="216" y="-137" type="line"/>
      <point x="226" y="-88"/>
      <point x="237" y="-38"/>
      <point x="246" y="9" type="curve"/>
      <point x="214" y="9" type="line"/>
      <point x="204" y="-38"/>
      <point x="193" y="-88"/>
    </contour>
    <contour>
      <point x="356" y="675" type="curve"/>
      <point x="388" y="675" type="line"/>
      <point x="397" y="717"/>
      <point x="407" y="760"/>
      <point x="416" y="803" type="curve"/>
      <point x="382" y="803" type="line"/>
      <point x="373" y="760"/>
      <point x="364" y="717"/>
    </contour>
  </outline>
</glyph>
<glyph name="macroncomb.case" format="2">
  <anchor x="352" y="494" name="_top"/>
  <anchor x="386" y="658" name="top"/>
  <outline>
    <contour>
      <point x="237" y="639" type="line"/>
      <point x="281" y="639"/>
      <point x="330" y="640"/>
      <point x="383" y="640" type="curve"/>
      <point x="436" y="640"/>
      <point x="485" y="639"/>
      <point x="529" y="639" type="curve"/>
      <point x="535" y="669" type="line"/>
      <point x="491" y="669"/>
      <point x="442" y="668"/>
      <point x="389" y="668" type="curve"/>
      <point x="336" y="668"/>
      <point x="287" y="669"/>
      <point x="243" y="669" type="curve"/>
    </contour>
  </outline>
</glyph>
<glyph name="naira.BRACKET.140" format="2">
  <advance width="785"/>
  <outline>
    <contour>
      <point x="82" y="0" type="curve"/>
      <point x="118" y="0" type="line"/>
      <point x="134" y="80"/>
      <point x="147" y="145"/>
      <point x="164" y="230" type="curve"/>
      <point x="250" y="633" type="line"/>
      <point x="254" y="633" type="line"/>
      <point x="376" y="384" type="line"/>
      <point x="449" y="233"/>
      <point x="508" y="110"/>
      <point x="561" y="0" type="curve"/>
      <point x="598" y="0" type="line"/>
      <point x="614" y="79"/>
      <point x="627" y="145"/>
      <point x="644" y="229" type="curve"/>
      <point x="692" y="455" type="line"/>
      <point x="711" y="539"/>
      <point x="727" y="609"/>
      <point x="744" y="684" type="curve"/>
      <point x="708" y="684" type="line"/>
      <point x="693" y="610"/>
      <point x="678" y="538"/>
      <point x="661" y="454" type="curve"/>
      <point x="576" y="54" type="line"/>
      <point x="572" y="54" type="line"/>
      <point x="449" y="305" type="line"/>
      <point x="391" y="425"/>
      <point x="329" y="552"/>
      <point x="265" y="684" type="curve"/>
      <point x="228" y="684" type="line"/>
      <point x="213" y="610"/>
      <point x="198" y="539"/>
      <point x="181" y="455" type="curve"/>
      <point x="133" y="229" type="line"/>
      <point x="114" y="144"/>
      <point x="100" y="80"/>
    </contour>
    <contour>
      <point x="57" y="338" type="line"/>
      <point x="96" y="339"/>
      <point x="137" y="339"/>
      <point x="171" y="340" type="curve"/>
      <point x="177" y="368" type="line"/>
      <point x="143" y="369"/>
      <point x="102" y="369"/>
      <point x="64" y="370" type="curve"/>
    </contour>
    <contour>
      <point x="654" y="340" type="line"/>
      <point x="688" y="339"/>
      <point x="729" y="339"/>
      <point x="766" y="338" type="curve"/>
      <point x="773" y="370" type="line"/>
      <point x="735" y="369"/>
      <point x="694" y="369"/>
      <point x="660" y="368" type="curve"/>
    </contour>
  </outline>
</glyph>
<glyph name="ogonekcomb.a" format="2">
  <anchor x="247" y="0" name="_ogonek"/>
  <outline>
    <contour>
      <point x="193" y="-200" type="curve" smooth="yes"/>
      <point x="203" y="-200"/>
      <point x="221" y="-198"/>
      <point x="242" y="-195" type="curve"/>
      <point x="248" y="-164" type="line"/>
      <point x="228" y="-167"/>
      <point x="211" y="-169"/>
      <point x="194" y="-171" type="curve"/>
      <point x="159" y="-171"/>
      <point x="139" y="-155"/>
      <point x="146" y="-122" type="curve" smooth="yes"/>
      <point x="156" y="-77"/>
      <point x="216" y="-36"/>
      <point x="278" y="0" type="curve"/>
      <point x="264" y="21" type="line"/>
      <point x="255" y="21" type="line"/>
      <point x="253" y="10" type="line"/>
      <point x="164" y="-37"/>
      <point x="125" y="-74"/>
      <point x="115" y="-118" type="curve" smooth="yes"/>
      <point x="105" y="-164"/>
      <point x="135" y="-200"/>
    </contour>
  </outline>
</glyph>
<glyph name="seven.dnom" format="2">
  <advance width="374"/>
  <outline>
    <contour>
      <point x="36" y="0" type="curve"/>
      <point x="78" y="0" type="line"/>
      <point x="115" y="55"/>
      <point x="156" y="115"/>
      <point x="193" y="170" type="curve"/>
      <point x="260" y="267" type="line"/>
      <point x="299" y="322"/>
      <point x="338" y="379"/>
      <point x="377" y="434" type="curve"/>
      <point x="382" y="459" type="line"/>
      <point x="65" y="459" type="line"/>
      <point x="58" y="428" type="line"/>
      <point x="125" y="429"/>
      <point x="200" y="430"/>
      <point x="241" y="430" type="curve"/>
      <point x="348" y="430" type="line"/>
      <point x="341" y="438" type="line"/>
      <point x="317" y="403"/>
      <point x="293" y="367"/>
      <point x="269" y="332" type="curve"/>
      <point x="169" y="188" type="line"/>
      <point x="126" y="128"/>
      <point x="82" y="65"/>
    </contour>
  </outline>
</glyph>
